<?xml version="1.0" encoding="UTF-8"?>
<svg xmlns="http://www.w3.org/2000/svg" onmouseup="{ if(window.parent.document.onmouseup) window.parent.document.onmouseup(arguments[0]);}" viewBox="0 0 95.71 83.7"><defs><style>.cls-1{isolation:isolate;}.cls-2,.cls-4,.cls-5{fill:#c69879;}.cls-3{fill:#99593d;}.cls-10,.cls-13,.cls-17,.cls-20,.cls-29,.cls-30,.cls-31,.cls-35,.cls-36,.cls-37,.cls-4,.cls-5,.cls-7{mix-blend-mode:multiply;}.cls-4{opacity:0.68;}.cls-6,.cls-7{fill:#9e7a60;}.cls-10,.cls-14,.cls-31,.cls-8{fill:#92644c;}.cls-9{fill:#593b2a;}.cls-10{opacity:0.71;}.cls-11{fill:#fff;}.cls-12{fill:#a1a3a6;}.cls-13{fill:#d5d7d8;opacity:0.54;}.cls-14,.cls-19,.cls-21,.cls-28{mix-blend-mode:screen;}.cls-15,.cls-17{fill:#a16846;}.cls-16{fill:#683824;}.cls-17,.cls-28{opacity:0.57;}.cls-18,.cls-19,.cls-20{fill:#8b5a3c;}.cls-20{opacity:0.62;}.cls-21,.cls-26,.cls-29,.cls-30,.cls-36{fill:#e2a769;}.cls-22{fill:#624230;}.cls-23{fill:#271000;}.cls-24{fill:#76513d;}.cls-25{fill:#4b3121;}.cls-27{fill:#8e4f38;}.cls-29{opacity:0.73;}.cls-31{opacity:0.52;}.cls-32,.cls-35{fill:#382111;}.cls-33{fill:#503424;}.cls-34{fill:#6c4a36;}.cls-36,.cls-37{opacity:0.75;}</style></defs><g class="cls-1"><g data-name="Capa 2" id="Capa_2"><g data-name="Layer 1" id="Layer_1"><g data-name="Capa 22" id="Capa_22"><g data-name="Capa 55" id="Capa_55"><path data-cppathid="10000" d="M52.39.22.71,52.17l.28.28,6.66-6.7,3.78.36L6.19,52l.29.26,5.44-6.08,4.89.47-4.68,6.09.31.24,4.84-6.29,4.16.39-4.2,6.35.33.22,4.31-6.53,4.49.43-3.45,6.25.34.19L52.57.92C52.51.69,52.46.46,52.39.22ZM46.91,7.48l-.34-.06,2.7-3ZM49,5.42,47.55,7.6l-.21,0Zm-5.88,7-2.94,3.83L38.91,16l3.36-3.76Zm-.54-.52,3.7-4.13.37.07-3.26,4.24Zm-2.66,4.69-3,3.85-1.78-.26,3.43-3.84Zm-3.24,4.21-2.82,3.67-2.35-.2,3.35-3.74Zm-3.1,4-3,3.88-2.71-.39,3.3-3.69Zm-3.26,4.24L27.3,33,24,32.6l3.52-3.93ZM27,33.34l-2.85,3.71-3.8-.34L23.72,33Zm-3.13,4.08-3.3,4.28-4.32-.41L20,37.08Zm.46,0,3.25.29L24.71,42.1l-3.66-.35Zm.29-.37,2.84-3.69,2.78.32-2.42,3.65ZM27.76,33l3-3.9,2.32.33-2.57,3.89ZM31,28.77l3-3.9L36,25,33.32,29.1Zm3.29-4.27,2.8-3.64,1.5.22-2.36,3.58Zm3.07-4,3-3.83,1.07.21-2.55,3.84Zm3.22-4.18,2.93-3.81.66.14-2.56,3.87Zm3.19-4.16,3.27-4.25.24,0L44.44,12.3Zm4.53-7.29L46.12,7.34l-.21,0ZM45.57,7.64l.24,0-3.68,4.11-.57-.12ZM41.23,12l.6.13L38.46,15.9l-.93-.18Zm-4,4.06,1,.18L34.7,20.1l-1.33-.2ZM33,20.24l1.36.21L31,24.22l-1.79-.14Zm-4.18,4.2,1.83.15-3.27,3.66L25.35,28ZM25,28.31l2.08.29-3.53,3.95-2.49-.29Zm-4.29,4.31,2.52.29-3.36,3.76L17,36.41Zm-4.13,4.15,3,.26-3.76,4.21-3.33-.32Zm-4.84,9L8,45.39l4.1-4.12h0l3.35.32Zm5.35.51-4.86-.46L16,41.65l4.36.42Zm4.58.43-4.12-.39,3.21-4.17,3.7.35Zm4.9.46-4.45-.42,2.78-4.2,4,.39Zm2.55-4.61-4-.38L28,37.79l3.54.31Zm2.66-4.81-3.5-.31,2.41-3.64,3.08.35Zm2.19-4-3-.35,2.56-3.88,2.6.38Zm2.33-4.22-2.56-.37,2.71-4.09,2.22.18Zm2.58-4.66-2.18-.18,2.34-3.54,1.75.26Zm1.93-3.5.06-.35-1.59-.24L41.82,17l1.3.25Zm2.5-4.52-1.26-.25,2.56-3.86.87.19Zm2.36-4.28-.83-.18L47.73,8l.42.08ZM48,7.68,50.53,3.8l-2.18,4Z" class="cls-2"/><path data-cppathid="10001" d="M23.26,54h0l-.34-.19,0,0v0l3.43-6.2-4.41-.41-4.3,6.5s0,0-.06,0l-.32-.22a0,0,0,0,1,0,0,0,0,0,0,1,0,0l4.16-6.29L17.3,46.7,12.47,53a0,0,0,0,1,0,0h0l-.31-.24s0,0,0-.05l4.64-6-4.81-.45L6.51,52.26a.06.06,0,0,1-.06,0L6.16,52a0,0,0,0,1,0-.06l5.19-5.8-3.68-.35L1,52.47a0,0,0,0,1-.06,0L.68,52.2s0,0,0,0,0,0,0,0L52.37.2s0,0,0,0,0,0,0,0c.07.24.12.48.18.71,0,0,0,0,0,0L23.3,54A.05.05,0,0,1,23.26,54ZM23,53.76l.28.15L52.53.92c-.05-.2-.1-.41-.16-.62L.77,52.17l.22.22,6.63-6.67h0l3.78.36,0,0s0,0,0,0L6.24,52l.24.21,5.41-6a0,0,0,0,1,0,0l4.9.46,0,0s0,0,0,0L12.18,52.7l.25.19,4.82-6.25,0,0,4.16.39a0,0,0,0,1,0,0,0,0,0,0,1,0,0l-4.18,6.32.27.17,4.29-6.49a.05.05,0,0,1,0,0l4.49.43,0,0v0Zm3.61-6.58h0l-4.45-.42,0,0a.06.06,0,0,1,0,0l2.78-4.2s0,0,0,0l4,.39,0,0v0l-2.34,4.24A.05.05,0,0,1,26.58,47.18Zm-4.38-.49,4.36.41,2.3-4.16-3.93-.38Zm-.52,0h0l-4.12-.39,0,0s0,0,0,0l3.21-4.18h0l3.7.36s0,0,0,0,0,0,0,0l-2.78,4.2Zm-4-.46,4,.38,2.73-4.13-3.61-.35Zm-.54,0h0l-4.85-.46a0,0,0,0,1,0,0,0,0,0,0,1,0,0l3.71-4.14h0l4.36.42s0,0,0,0a.08.08,0,0,1,0,0l-3.21,4.17Zm-4.78-.53,4.76.45,3.15-4.11L16,41.69Zm-.57,0h0L8,45.43s0,0,0,0a.06.06,0,0,1,0,0l4.1-4.12h.06l3.32.32s0,0,0,0a.06.06,0,0,1,0,0l-3.71,4.14ZM8.1,45.36l3.64.34,3.64-4.07-3.26-.31Zm21-2.79h0l-4-.38s0,0,0,0v0L28,37.76h0l3.53.31,0,0a0,0,0,0,1,0,0l-2.45,4.43S29.14,42.57,29.13,42.57Zm-3.9-.46,3.88.38,2.4-4.36-3.45-.3Zm-.52,0h0l-3.66-.35a0,0,0,0,1,0,0s0,0,0,0l3.3-4.29h0l3.24.29,0,0a0,0,0,0,1,0,0l-2.88,4.35S24.73,42.14,24.71,42.14Zm-3.58-.42,3.56.34,2.84-4.28-3.16-.28Zm-.54,0h0l-4.32-.42s0,0,0,0a0,0,0,0,1,0,0L20,37.05h0l3.85.34s0,0,0,0a0,0,0,0,1,0,0l-3.3,4.29S20.6,41.74,20.59,41.74Zm-4.24-.49,4.22.41,3.24-4.21-3.75-.33Zm-.56,0h0L12.46,41l0,0a.06.06,0,0,1,0,0l4.13-4.15h0l3,.26s0,0,0,0a.06.06,0,0,1,0,0l-3.76,4.2Zm-3.24-.39,3.22.31,3.7-4.14-2.87-.25Zm19.24-3.13h0l-3.49-.31a.05.05,0,0,1,0,0,.06.06,0,0,1,0,0l2.41-3.65h0l3.07.35,0,0a0,0,0,0,1,0,0l-2,3.6Zm-3.43-.38,3.4.3,1.95-3.53-3-.34Zm-.52,0h0l-3.21-.28,0,0a.08.08,0,0,1,0,0l2.84-3.69a0,0,0,0,1,0,0l2.79.32,0,0s0,0,0,0l-2.42,3.65S27.86,37.41,27.84,37.41Zm-3.13-.35,3.11.27,2.38-3.58-2.71-.31Zm-.54,0h0l-3.81-.34,0,0s0,0,0,0l3.35-3.74,0,0L27,33.3l0,0a.06.06,0,0,1,0,0l-2.85,3.7Zm-3.72-.41,3.7.33L27,33.37,23.73,33Zm-.57,0h0L17,36.45l0,0a.06.06,0,0,1,0,0l3.77-3.79h0l2.52.29a.05.05,0,0,1,0,0s0,0,0,0l-3.36,3.76ZM17,36.37l2.82.26,3.3-3.69-2.43-.28ZM34,33.79h0l-3-.35s0,0,0,0,0,0,0,0l2.57-3.88a0,0,0,0,1,0,0l2.61.37,0,0a.06.06,0,0,1,0,0L34,33.77Zm-3-.42L34,33.7l2.09-3.77-2.52-.36Zm-.5,0h0l-2.75-.32,0,0s0,0,0,0l3-3.9a0,0,0,0,1,0,0l2.32.33s0,0,0,0a0,0,0,0,1,0,0l-2.57,3.89ZM27.83,33l2.66.31L33,29.49l-2.24-.32Zm-.53,0h0L24,32.64a.05.05,0,0,1,0,0s0,0,0,0l3.52-3.93,0,0,2.75.4,0,0a.06.06,0,0,1,0,0l-3,3.91Zm-3.18-.45,3.16.37,3-3.84-2.67-.39Zm-.56,0h0l-2.49-.29,0,0s0,0,0,0l3.94-4h0l2.09.3,0,0s0,0,0,0l-3.53,3.95Zm-2.4-.36,2.39.28L27,28.63l-2-.28Zm15.15-2.66h0l-2.57-.37,0,0a.06.06,0,0,1,0,0l2.71-4.09s0,0,0,0l2.22.18s0,0,0,0a0,0,0,0,1,0,0l-2.36,4.28Zm-2.49-.44,2.47.36,2.32-4.21-2.13-.17Zm-.5,0h0L31,28.81l0,0s0,0,0,0l3-3.91h0L36,25a.05.05,0,0,1,0,0s0,0,0,0l-2.69,4.07Zm-2.22-.4,2.2.32,2.64-4-1.89-.15Zm-.52,0h0l-2.71-.39a0,0,0,0,1,0,0,0,0,0,0,1,0,0l3.3-3.68a.05.05,0,0,1,0,0l2.39.2,0,0s0,0,0,0l-3,3.88A.05.05,0,0,1,30.58,28.75ZM28,28.29l2.62.38,2.92-3.81-2.3-.19Zm-.54,0h0l-2-.29a0,0,0,0,1,0,0s0,0,0,0l3.5-3.52h0l1.82.15s0,0,0,0a.06.06,0,0,1,0,0l-3.28,3.66Zm-2-.36,1.95.28,3.21-3.59-1.73-.14Zm13.45-3h0l-2.18-.18,0,0s0,0,0,0L39,21.12s0,0,0,0l1.72.25h0l0-.31-1.54-.23s0,0,0,0a0,0,0,0,1,0,0l2.53-3.82a0,0,0,0,1,0,0l1.3.25,0,0v0l-2.3,4.16h0v0l-1.92,3.46Zm-2.11-.25,2.08.17,1.88-3.39-1.67-.25Zm2.58-3.91,1.52.23,0,0s0,0,0,0l0,.13,2.17-3.92L41.84,17Zm-3.1,3.95h0l-1.94-.16s0,0,0,0a.06.06,0,0,1,0,0l2.8-3.64s0,0,0,0l1.51.22s0,0,0,0,0,0,0,0l-2.37,3.58Zm-1.87-.24,1.85.15,2.32-3.5-1.42-.21Zm-.54,0h0l-2.35-.2a.05.05,0,0,1,0,0,.06.06,0,0,1,0,0l3.35-3.75h0l1.82.27,0,0s0,0,0,0l-2.82,3.67Zm-2.27-.27,2.25.19,2.77-3.6-1.73-.26Zm-.57,0h0l-1.8-.14s0,0,0,0,0,0,0,0L33,20.22s0,0,0,0l1.35.2,0,0s0,0,0,0L31,24.25ZM29.3,24l1.69.14,3.32-3.7L33,20.29Zm9.56-3.28h0l-1.47-.22a0,0,0,0,1,0,0,0,0,0,0,1,0,0l3-3.84h0l1.06.21s0,0,0,0a0,0,0,0,1,0,0L38.9,20.74A.05.05,0,0,1,38.86,20.76Zm-1.4-.29,1.38.21,2.5-3.78-1-.19Zm-.51,0h0l-1.78-.26,0,0a.06.06,0,0,1,0,0l3.43-3.84h0l1.3.26s0,0,0,0a0,0,0,0,1,0,0l-3,3.85Zm-1.7-.33,1.68.25,2.91-3.78-1.23-.24Zm-.55,0h0l-1.33-.2a0,0,0,0,1,0,0s0,0,0,0L37.17,16h0l1,.19,0,0a.06.06,0,0,1,0,0l-3.45,3.85Zm-1.24-.27,1.23.18,3.38-3.78-.86-.17Zm9.86-3h0l-1.26-.25,0,0a.06.06,0,0,1,0,0l2.55-3.86a0,0,0,0,1,0,0l.87.19s0,0,0,0,0,0,0,0l-2.16,3.92A.05.05,0,0,1,43.32,16.89Zm-1.2-.32,1.18.23L45.43,13l-.8-.18Zm-.48,0h0l-1-.2a0,0,0,0,1,0,0s0,0,0,0l2.94-3.82s0,0,0,0l.66.14,0,0v0l-2.57,3.87S41.65,16.56,41.64,16.56Zm-1-.27.94.19,2.52-3.8-.58-.13Zm-.51,0h0L38.9,16a0,0,0,0,1,0,0s0,0,0,0l3.36-3.76h0l.84.18s0,0,0,0,0,0,0,0l-2.94,3.82ZM39,16l1.18.23,2.89-3.75-.77-.17Zm-.52,0h0l-.93-.18s0,0,0,0a.08.08,0,0,1,0,0L41.2,12h0l.6.13,0,0a.06.06,0,0,1,0,0l-3.38,3.77Zm-.85-.24.83.16,3.31-3.7L41.24,12Zm8.07-3.09h0l-.84-.18,0,0a0,0,0,0,1,0,0L47.7,8a.05.05,0,0,1,0,0l.42.08a0,0,0,0,1,0,0,0,0,0,0,1,0,0l-2.46,4.46A.05.05,0,0,1,45.68,12.61Zm-.77-.25.75.17,2.43-4.39-.34-.06Zm-.47,0h0l-.63-.14a0,0,0,0,1,0,0,0,0,0,0,1,0,0L47,7.89l0,0,.24,0,0,0a.06.06,0,0,1,0,0l-2.87,4.34Zm-.57-.2.55.11L47.24,8l-.15,0Zm-.49,0h0l-.81-.18s0,0,0,0a.08.08,0,0,1,0,0l3.7-4.12,0,0,.37.07a0,0,0,0,1,0,0,0,0,0,0,1,0,0l-3.26,4.24Zm-.73-.24.71.15,3.21-4.16-.29-.05Zm-.52,0h0l-.57-.12,0,0a.06.06,0,0,1,0,0l4-4s0,0,0,0l.24,0a0,0,0,0,1,0,0,.08.08,0,0,1,0,0l-3.68,4.11Zm-.49-.18.48.1,3.62-4-.15,0Zm6.71-3.86h0L48,7.71l0,0s0,0,0,0L50.5,3.78s0,0,0,0,0,0,0,0l-2.18,4S48.36,7.79,48.35,7.79ZM48,7.65l.3,0L50,4.64Zm-.48,0h0l-.21,0,0,0a0,0,0,0,1,0,0L49,5.39a0,0,0,0,1,0,0s0,0,0,.05L47.58,7.62Zm-.14-.11.12,0,.81-1.23Zm-.5,0h0l-.33-.06a0,0,0,0,1,0,0,0,0,0,0,1,0,0l2.71-3h0a0,0,0,0,1,0,0L46.94,7.5Zm-.26-.13.24.05L48.6,5.21Zm-.53,0h0l-.21,0,0,0s0,0,0,0L48.3,4.84s0,0,.05,0a0,0,0,0,1,0,0L46.15,7.36ZM46,7.27l.12,0L47.31,6Z" class="cls-3"/><path data-cppathid="10002" d="M27.22,46l-.64,1.16-4.45-.42L23,45.48l-.44,0-.83,1.25-4.12-.39,1-1.28-.46,0-1,1.29-4.86-.46,1.11-1.24-.49,0-1.11,1.23L8,45.39l1.16-1.16-.45,0H8.65l-7.94,8,.28.28,6.66-6.7,3.78.36L6.19,52l.29.26,5.44-6.08,4.89.47-4.68,6.09.31.24,4.84-6.29,4.16.39-4.2,6.35.33.22,4.31-6.53,4.49.43-3.45,6.25.34.19,4.38-7.91Z" class="cls-4"/><path data-cppathid="10003" d="M35.77,17.49l1.42-1.43,1,.18-2.52,2.82c0,.2,0,.4,0,.6l3-3.33,1.31.25-3,3.85-1.31-.19,0,.4,1,.15-.85,1.1c0,.18.07.35.1.52l1.2-1.55,1.5.22L36.43,24.4c0,.14.08.27.13.41l.09.27,2,.17-1,1.85.06.09.2.27L52.57.92c-.06-.23-.11-.46-.18-.7L35.92,16.78C35.86,17,35.81,17.25,35.77,17.49ZM38.91,16l3.36-3.76.84.18-2.94,3.83Zm4.89-3.83,3.27-4.25.24,0L44.44,12.3Zm.4.49-2.56,3.87-1-.2,2.93-3.81Zm-.82-.58-.81-.18,3.7-4.13.37.07Zm-6,8.43,3-3.83,1.07.21-2.55,3.84Zm1.5,4.37-2.18-.18,2.34-3.54,1.75.26Zm1.93-3.5.06-.35-1.59-.24L41.82,17l1.3.25Zm2.5-4.52-1.26-.25,2.56-3.86.87.19Zm2.36-4.28-.83-.18L47.73,8l.42.08Zm1.66-5L49,5.42,47.55,7.6Zm1,.19L48,7.68,50.53,3.8Zm-1.44-.27-.34-.06,2.7-3Zm1.42-2.61L46.12,7.34l-.21,0ZM45.57,7.64l.24,0-3.68,4.11-.57-.12ZM41.23,12l.6.13L38.46,15.9l-.93-.18Z" class="cls-4"/><path data-cppathid="10004" d="M51.42,1.36s.07,0,0,.06a.83.83,0,0,1-.07.13,3.3,3.3,0,0,1-.47.52l-.61.49L49.73,3c-.22.2-.43.41-.64.62l-.69.71c-.22.23-.46.45-.69.68a15.18,15.18,0,0,0-1.25,1.41c-.32.41-.63.83-.94,1.24l0-.05h0A3.61,3.61,0,0,0,46,7.31h-.06l.73-.73.13-.14.09-.09,1.47-1.47-.65.73.8-.73c.74-.68,1.47-1.39,2.28-2,0,0,.07,0,.05.05q-.29.48-.6.93c-.38.54-.77,1.07-1.15,1.6s-.59.83-.86,1.26l.22-.25c.38-.43.76-.85,1.17-1.24l.94-1.41-.62,1.13a6.47,6.47,0,0,1,.57-.47,0,0,0,0,1,.06,0V4.6l2-3.68c-.06-.23-.11-.46-.18-.7L51,1.66Z" class="cls-5"/><polygon data-cppathid="10005" points="95.04 53.91 52.91 0.42 52.76 0.53 52.44 0.68 78.73 56.41 79.09 56.24 53.25 1.49 94.73 54.15 95.04 53.91" class="cls-6"/><path data-cppathid="10006" d="M78.73,56.45h0a0,0,0,0,1,0,0L52.4.7s0,0,0,0a0,0,0,0,1,0,0L52.74.5l.14-.12h.06L95.07,53.88a.05.05,0,0,1,0,.06l-.31.24s0,0-.06,0L53.43,1.79,79.12,56.23a0,0,0,0,1,0,.05l-.36.17ZM52.49.7,78.75,56.36l.29-.13L53.21,1.51s0,0,0-.05a0,0,0,0,1,.05,0L94.74,54.1l.25-.2L52.9.47l-.12.09h0Z" class="cls-3"/><path data-cppathid="10007" d="M75.08,48.68l3.65,7.73.36-.17-3.59-7.6Z" class="cls-7"/><path data-cppathid="10008" d="M64.69,25.73,56,7.22l-.42,0,8.75,18.53Z" class="cls-7"/><path data-cppathid="10009" d="M67.51,31.72,65,26.32l-.41.05,2.74,5.82Z" class="cls-7"/><path data-cppathid="10010" d="M65.47,16.75a3.27,3.27,0,0,1,0-.44L58.06,7,57.61,7l7.92,10.06Z" class="cls-7"/><path data-cppathid="10011" d="M90.54,48.83l4.19,5.32.31-.24-4-5.06Z" class="cls-7"/><path data-cppathid="10012" d="M53.46,1.94l-.21-.45.24.3c0-.16.07-.33.11-.49L52.91.42l-.15.11-.32.15.92,2C53.38,2.4,53.42,2.17,53.46,1.94Z" class="cls-7"/><path data-cppathid="10013" d="M52.63,67.45a.48.48,0,0,1-.48-.47V.51A.48.48,0,0,1,52.63,0a.47.47,0,0,1,.47.47V67A.47.47,0,0,1,52.63,67.45Z" class="cls-8"/><path data-cppathid="10014" d="M52.63,67.49a.51.51,0,0,1-.51-.51V.51A.51.51,0,0,1,52.63,0a.51.51,0,0,1,.51.51V67A.51.51,0,0,1,52.63,67.49Zm0-67.41a.44.44,0,0,0-.44.43V67a.44.44,0,0,0,.44.43.43.43,0,0,0,.43-.43V.51A.43.43,0,0,0,52.63.08Z" class="cls-9"/><path data-cppathid="10015" d="M52.58,27.05l-.43,0V49.71A1.66,1.66,0,0,1,53,49.5h.11V27A4.63,4.63,0,0,1,52.58,27.05Z" class="cls-10"/><path data-cppathid="10016" d="M52.15,7.21v19l.18,0a3.94,3.94,0,0,1,.77-.07V7.18A4.3,4.3,0,0,1,52.15,7.21Z" class="cls-10"/><path data-cppathid="10017" d="M52.48.06l0,.62c-.05,2.65.44,5.28.35,7.94s0,5.6.09,8.4,0,5.59,0,8.39-.08,5.62-.1,8.43c-.05,5.64-.06,11.29-.07,16.93V55c0,.6,0,1.2,0,1.79-.09,1.18-.19,2.35-.23,3.53a18.84,18.84,0,0,0,.16,4.11,3.93,3.93,0,0,0,.49,1.47V.51A.47.47,0,0,0,52.63,0Z" class="cls-10"/><path data-cppathid="10018" d="M40.74,9.07s-7.67,7.52-2.35,16.82l29.66-1.41S61.16,18.42,66.78,7.6Z" class="cls-11"/><path data-cppathid="10019" d="M38.37,25.93v0a13.62,13.62,0,0,1-1.89-6.57A13.59,13.59,0,0,1,37.53,14a16.69,16.69,0,0,1,3.18-4.93h0L66.85,7.55l0,.06a18.48,18.48,0,0,0-2.17,7.19,13,13,0,0,0,.69,5.28,11.31,11.31,0,0,0,2.74,4.37l.07.06ZM40.76,9.11A16.35,16.35,0,0,0,37.61,14a13.48,13.48,0,0,0-1.06,5.33,13.47,13.47,0,0,0,1.86,6.51L68,24.44a11.68,11.68,0,0,1-2.68-4.33,13.1,13.1,0,0,1-.7-5.31,18.42,18.42,0,0,1,2.15-7.16Z" class="cls-12"/><path data-cppathid="10020" d="M43.7,10.82c2.37-.35,4.75-.68,7.15-.83s4.95-.3,7.43-.37,5.06-.08,7.6-.06a19.79,19.79,0,0,1,.9-2l-26,1.47a14.36,14.36,0,0,0-1.88,2.44C40.48,11.3,42.09,11.06,43.7,10.82Z" class="cls-13"/><path data-cppathid="10021" d="M66.64,7.87a6.76,6.76,0,0,0-.81.88,9.08,9.08,0,0,0-1.14,2.07c-.63,1.52-1,3.12-1.74,4.62a8,8,0,0,1-1.31,2,7.82,7.82,0,0,1-1.89,1.44,15.86,15.86,0,0,1-4.94,1.58c-1.66.28-3.33.42-5,.55-1.49.11-3,.25-4.48.28a12.59,12.59,0,0,1-4.76-.65,4.87,4.87,0,0,1-1.79-1.13,4.29,4.29,0,0,1-1.06-1.95,8.64,8.64,0,0,1,0-3.95,13.1,13.1,0,0,0,.68,12.23l29.66-1.41S61.28,18.52,66.64,7.87Z" class="cls-13"/><path data-cppathid="10022" d="M64.84,18.44c0,.54-.07,1.07-.12,1.6a3.41,3.41,0,0,1-.42,1.57,2.53,2.53,0,0,1-1.26.86,10,10,0,0,1-1.87.53,27,27,0,0,1-4.21.36c-.68,0-1.36,0-2,.06s-1.5.09-2.26.15c-1.74.15-3.48.29-5.23.37-.79,0-1.59.06-2.38.11s-1.52.1-2.28.11a8.07,8.07,0,0,1-4.06-.72,5,5,0,0,1-2.09-2.61,13.91,13.91,0,0,0,1.77,5.06l29.66-1.41A11.68,11.68,0,0,1,64.84,18.44Z" class="cls-13"/><path data-cppathid="10023" d="M40.69,9.42a.39.39,0,0,1-.39-.37.39.39,0,0,1,.37-.42L66.88,7.06a.4.4,0,0,1,.41.37.39.39,0,0,1-.37.42L40.71,9.42Z" class="cls-8"/><path data-cppathid="10024" d="M40.69,9.46a.43.43,0,0,1-.43-.41.39.39,0,0,1,.11-.31.41.41,0,0,1,.29-.15L66.88,7a.51.51,0,0,1,.31.11.44.44,0,0,1,.14.3.39.39,0,0,1-.11.31.41.41,0,0,1-.29.15L40.72,9.45ZM66.9,7.1h0L40.67,8.67a.35.35,0,0,0-.25.12.33.33,0,0,0-.08.25.36.36,0,0,0,.37.34L66.92,7.81a.34.34,0,0,0,.33-.38.32.32,0,0,0-.11-.24A.36.36,0,0,0,66.9,7.1Z" class="cls-9"/><path data-cppathid="10025" d="M40.56,8.73a21.67,21.67,0,0,1,2.55-.13c.45,0,.9-.09,1.36-.13s1-.05,1.47-.05c1,0,2,0,3-.05l3-.2c2-.14,4-.27,6-.39l3-.15c1,0,2-.08,3-.16s1.94-.24,2.91-.3h.24a.42.42,0,0,0-.28-.1L40.67,8.63a.42.42,0,0,0-.28.14Z" class="cls-14"/><path data-cppathid="10026" d="M66.88,7.06h0a.74.74,0,0,0-.2.53s0,0,0,0a25.87,25.87,0,0,0-2.92,0c-1,.09-2,.19-3,.25-3.55.24-7.12.28-10.66.63a47.12,47.12,0,0,1-5.31.3,10.73,10.73,0,0,0-1.27,0c-.41,0-.82.1-1.23.15a7.82,7.82,0,0,1-1.93.09.4.4,0,0,0,.39.36h0L66.92,7.85a.39.39,0,0,0,.37-.42A.4.4,0,0,0,66.88,7.06Z" class="cls-10"/><path data-cppathid="10027" d="M38.39,26.33A.39.39,0,0,1,38,26a.39.39,0,0,1,.38-.41L68,24.29a.4.4,0,0,1,0,.79L38.41,26.33Z" class="cls-8"/><path data-cppathid="10028" d="M38.39,26.37A.43.43,0,0,1,38,26a.47.47,0,0,1,.11-.31.41.41,0,0,1,.3-.14L68,24.25a.43.43,0,0,1,.31.12.39.39,0,0,1,.14.3.41.41,0,0,1-.11.31.49.49,0,0,1-.3.14L38.41,26.37Zm29.66-2h0L38.38,25.59A.34.34,0,0,0,38,26a.35.35,0,0,0,.35.34h0L68.06,25a.33.33,0,0,0,.25-.11.35.35,0,0,0,.09-.26.32.32,0,0,0-.11-.24A.37.37,0,0,0,68.05,24.33Z" class="cls-9"/><path data-cppathid="10029" d="M41.17,25.69c.6,0,1.19,0,1.79,0s1.19-.07,1.78-.13c1.06-.09,2.12-.2,3.18-.25s2.12-.05,3.18-.07c2.17,0,4.35-.12,6.51-.23s4.29-.26,6.42-.48c1.38-.14,2.76-.18,4.15-.2l-.15,0L38.38,25.55a.38.38,0,0,0-.36.28C39.07,25.8,40.12,25.7,41.17,25.69Z" class="cls-14"/><path data-cppathid="10030" d="M68.07,24.3a.73.73,0,0,0-.29.56s0,0,0,0a10.47,10.47,0,0,1-2.85,0c-.55,0-1.1,0-1.64.06L61.6,25c-2,0-4.05,0-6.08.17s-4,.3-6.05.38-4,.2-6.07.31c-1,.05-2,.08-3,.16A11.71,11.71,0,0,1,39,26c-.32,0-.64-.07-1-.06h0a.39.39,0,0,0,.39.37h0l29.66-1.25a.39.39,0,0,0,.37-.41A.38.38,0,0,0,68.07,24.3Z" class="cls-10"/><path data-cppathid="10031" d="M37.65,28.79a.41.41,0,0,1-.41-.39.41.41,0,0,1,.4-.43l30.81-1.3a.41.41,0,0,1,0,.82l-30.81,1.3Z" class="cls-8"/><path data-cppathid="10032" d="M37.65,28.83a.45.45,0,0,1-.45-.43.47.47,0,0,1,.12-.32.46.46,0,0,1,.31-.15l30.82-1.3a.44.44,0,0,1,.46.43.45.45,0,0,1-.43.47l-30.81,1.3Zm30.81-2.12h0L37.64,28a.37.37,0,0,0-.36.39.37.37,0,0,0,.37.35h0l30.81-1.3a.42.42,0,0,0,.26-.12.38.38,0,0,0-.28-.62Z" class="cls-9"/><path data-cppathid="10033" d="M37.65,28.79a.41.41,0,0,1-.41-.39.41.41,0,0,1,.4-.43l30.81-1.3a.41.41,0,0,1,0,.82l-30.81,1.3Z" class="cls-8"/><path data-cppathid="10034" d="M37.65,28.83a.45.45,0,0,1-.45-.43.47.47,0,0,1,.12-.32.46.46,0,0,1,.31-.15l30.82-1.3a.44.44,0,0,1,.46.43.45.45,0,0,1-.43.47l-30.81,1.3Zm30.81-2.12h0L37.64,28a.37.37,0,0,0-.36.39.37.37,0,0,0,.37.35h0l30.81-1.3a.42.42,0,0,0,.26-.12.38.38,0,0,0-.28-.62Z" class="cls-9"/><path data-cppathid="10035" d="M37.66,28.15a8.63,8.63,0,0,0,1.68.11c.57,0,1.15-.11,1.73-.15,1.16-.08,2.31-.19,3.47-.28,2.35-.17,4.71-.13,7.06-.22s4.73-.25,7.09-.41,4.72-.3,7.08-.37c.59,0,1.18,0,1.77,0,.41,0,.83,0,1.24.07h0a.41.41,0,0,0-.38-.23L37.64,28a.43.43,0,0,0-.31.16Z" class="cls-14"/><path data-cppathid="10036" d="M68.45,26.67h-.1a1.37,1.37,0,0,0-.07.24.54.54,0,0,1-.57.41,5.93,5.93,0,0,1-1.11-.08,10.9,10.9,0,0,0-1.4,0l-1.66.05c-2.23.09-4.45.25-6.68.3s-4.45.11-6.67.23l-3.34.2-3.3.14c-2.07.09-4.15.21-6.21.49a.42.42,0,0,0,.31.15h0l30.81-1.3a.41.41,0,0,0,0-.82Z" class="cls-10"/><path data-cppathid="10037" d="M37.78,28.64s-6.42,10.76-.45,20.57l31.3-1.57s-6.41-8.81-.11-20.24Z" class="cls-11"/><path data-cppathid="10038" d="M37.31,49.25l0,0a17.5,17.5,0,0,1-2.45-7.37,21.16,21.16,0,0,1,.44-6.62,25,25,0,0,1,2.46-6.62v0h0l30.81-1.24,0,.06a21.82,21.82,0,0,0-2.63,8,18.91,18.91,0,0,0,.33,6.41,17.15,17.15,0,0,0,2.41,5.82l0,.05h-.07Zm.49-20.57a24.59,24.59,0,0,0-2.45,6.58,21.31,21.31,0,0,0-.43,6.6,17.31,17.31,0,0,0,2.43,7.31l31.2-1.57a17.77,17.77,0,0,1-2.38-5.78,19.36,19.36,0,0,1-.33-6.44,21.71,21.71,0,0,1,2.61-7.93Z" class="cls-12"/><path data-cppathid="10039" d="M42.3,30.75c2.45-.45,4.92-.76,7.4-1a57.86,57.86,0,0,1,7.9-.18c2.67.13,5.33.42,8,.71l1.51.17a24,24,0,0,1,1.43-3.08L37.78,28.64a21.33,21.33,0,0,0-1.61,3.61A49.81,49.81,0,0,1,42.3,30.75Z" class="cls-13"/><path data-cppathid="10040" d="M68.24,27.93a7.25,7.25,0,0,0-1.35,1.36,11.54,11.54,0,0,0-1.55,3.1c-.43,1.18-.77,2.39-1.15,3.59a16.67,16.67,0,0,1-1.27,3.2,8.81,8.81,0,0,1-3.56,3.26,18.32,18.32,0,0,1-5,1.63,40.64,40.64,0,0,1-5.15.61c-1.57.1-3.14.2-4.7.18a14.13,14.13,0,0,1-4.87-.79,5.69,5.69,0,0,1-3.29-3,10.51,10.51,0,0,1-.7-3.46,16,16,0,0,1,.27-3.66,28,28,0,0,1,.75-3c-1.52,3.69-3.63,11.23.66,18.28l31.3-1.57S62.41,39.1,68.24,27.93Z" class="cls-13"/><path data-cppathid="10041" d="M66,34.71c-.81,2-.65,4.42-1.51,6.47a5.43,5.43,0,0,1-1,1.64,7.35,7.35,0,0,1-1.54,1.24A13.54,13.54,0,0,1,58,45.59a43.76,43.76,0,0,1-4.82.84c-1.8.24-3.61.4-5.42.5s-3.59.11-5.38.06a18.58,18.58,0,0,1-4.08-.48,8.21,8.21,0,0,1-2.76-1.29,16.92,16.92,0,0,0,1.79,4l31.3-1.57A18.6,18.6,0,0,1,66,34.71Z" class="cls-13"/><path data-cppathid="10042" d="M37.54,49.62a.4.4,0,0,1-.4-.39.41.41,0,0,1,.39-.43l30.81-1.3a.41.41,0,0,1,0,.82l-30.81,1.3Z" class="cls-8"/><path data-cppathid="10043" d="M37.54,49.66a.44.44,0,0,1-.44-.43.42.42,0,0,1,.11-.32.48.48,0,0,1,.31-.15l30.82-1.3h0a.45.45,0,0,1,0,.9l-30.81,1.3Zm30.82-2.12h0l-30.81,1.3a.42.42,0,0,0-.26.12.43.43,0,0,0-.1.27.37.37,0,0,0,.37.35h0l30.81-1.3a.42.42,0,0,0,.26-.12.37.37,0,0,0,.09-.27A.36.36,0,0,0,68.36,47.54Z" class="cls-9"/><path data-cppathid="10044" d="M37.54,49.62a.4.4,0,0,1-.4-.39.41.41,0,0,1,.39-.43l30.81-1.3a.41.41,0,0,1,0,.82l-30.81,1.3Z" class="cls-8"/><path data-cppathid="10045" d="M37.54,49.66a.44.44,0,0,1-.44-.43.42.42,0,0,1,.11-.32.48.48,0,0,1,.31-.15l30.82-1.3h0a.45.45,0,0,1,0,.9l-30.81,1.3Zm30.82-2.12h0l-30.81,1.3a.42.42,0,0,0-.26.12.43.43,0,0,0-.1.27.37.37,0,0,0,.37.35h0l30.81-1.3a.42.42,0,0,0,.26-.12.37.37,0,0,0,.09-.27A.36.36,0,0,0,68.36,47.54Z" class="cls-9"/><path data-cppathid="10046" d="M37.55,49a8.63,8.63,0,0,0,1.68.11c.57,0,1.15-.11,1.73-.15,1.16-.08,2.32-.19,3.47-.28,2.35-.17,4.71-.13,7.06-.22s4.73-.25,7.09-.41,4.72-.3,7.09-.37c.58,0,1.17,0,1.76,0,.42,0,.83,0,1.25.07h0a.41.41,0,0,0-.38-.23L37.53,48.8a.43.43,0,0,0-.31.16Z" class="cls-14"/><path data-cppathid="10047" d="M68.34,47.5h-.09a.85.85,0,0,0-.08.24.54.54,0,0,1-.57.41,5.93,5.93,0,0,1-1.11-.08,10.9,10.9,0,0,0-1.4,0l-1.66,0c-2.23.09-4.45.25-6.68.3s-4.44.11-6.67.23l-3.34.2-3.3.14c-2.07.09-4.15.21-6.21.49a.42.42,0,0,0,.31.15h0l30.81-1.3a.41.41,0,0,0,0-.82Z" class="cls-10"/><path data-cppathid="10048" d="M59,55,56.7,55l-.25,8.65,2.56.07C59,60.81,59,57.91,59,55Z" class="cls-15"/><path data-cppathid="10049" d="M59.05,63.73l-2.64-.07v0l.25-8.69L59,55v0c.06,2.2.06,4.45,0,6.62v2.08Zm-2.56-.15,2.48.07v-2c0-2.16,0-4.39,0-6.58L56.73,55Z" class="cls-16"/><path data-cppathid="10050" d="M59,55c.08,2.88,0,5.78,0,8.66l2.36.07c.15-2.88.27-5.78.4-8.65Z" class="cls-15"/><path data-cppathid="10051" d="M61.41,63.8,59,63.73V61.65c0-2.17,0-4.42,0-6.62v0l2.89.08v0l-.12,2.77c-.09,1.93-.18,3.92-.28,5.88Zm-2.36-.15,2.28.07c.11-1.95.19-3.93.28-5.84q.06-1.38.12-2.73L59,55.07c.06,2.19.06,4.42,0,6.58Z" class="cls-16"/><path data-cppathid="10052" d="M61.77,55.11c-.13,2.87-.25,5.77-.4,8.65l3.53.1c.24-2.89.38-5.79.75-8.64Z" class="cls-15"/><path data-cppathid="10053" d="M64.94,63.9l-3.61-.1v0c.11-2,.19-4,.28-5.88l.12-2.77v0l4,.11v0c-.26,2-.41,4.07-.55,6.06-.06.85-.13,1.72-.2,2.58Zm-3.53-.18,3.46.1c.07-.85.13-1.71.19-2.54.14-2,.29-4,.55-6l-3.8-.1-.12,2.73C61.6,59.79,61.52,61.77,61.41,63.72Z" class="cls-16"/><path data-cppathid="10054" d="M65.65,55.22c-.37,2.85-.51,5.75-.75,8.64l2.7.07c.16-2.88.24-5.76.41-8.65Z" class="cls-15"/><path data-cppathid="10055" d="M67.64,64l-2.78-.08v0c.07-.85.14-1.73.2-2.57.14-2,.29-4.06.55-6.07v0l2.43.06v0c-.09,1.55-.16,3.12-.22,4.63-.06,1.32-.11,2.68-.19,4ZM65,63.82l2.62.07c.07-1.33.12-2.67.18-4,.06-1.5.13-3.06.22-4.59l-2.28-.06c-.26,2-.41,4-.55,6C65.08,62.11,65,63,65,63.82Z" class="cls-16"/><path data-cppathid="10056" d="M76,55.5,68,55.28c-.17,2.89-.25,5.77-.41,8.65l8.12.23Z" class="cls-15"/><path data-cppathid="10057" d="M75.76,64.2h0L67.56,64v0c.07-1.34.12-2.7.18-4,.06-1.52.13-3.09.22-4.63v0l8,.23v0Zm-8.11-.31,8,.23.24-8.58-7.87-.22c-.09,1.53-.16,3.09-.22,4.59C67.77,61.22,67.72,62.57,67.65,63.89Z" class="cls-16"/><path data-cppathid="10058" d="M68,55.28h-.2c0,.19,0,.38,0,.56s0,.4,0,.59,0,.45-.07.68a2.1,2.1,0,0,1-.14.6,1,1,0,0,1-.29.39,2.93,2.93,0,0,1-.5.34,5.47,5.47,0,0,1-1.07.5s0,0,0,0c0-.38,0-.76,0-1.14,0-.68,0-1.37,0-2,0-.17,0-.33,0-.49h-.21c0,.22-.07.44-.1.66-.1.69-.23,1.37-.35,2.06a6.15,6.15,0,0,0-.13.86,2.17,2.17,0,0,1,0,.36.54.54,0,0,1-.08.28.61.61,0,0,1-.22.13,1.68,1.68,0,0,1-.32.09c-.21.05-.43.07-.65.11-.67.11-1.32.29-2,.4,0,0,0,0,0,0,0-.24,0-.49.07-.74,0-.82,0-1.64,0-2.46a3.7,3.7,0,0,0-.14.55c-.18.91-.14,1.85-.31,2.77l0,0a2.36,2.36,0,0,0-.44.11l-.54.17a3.59,3.59,0,0,1-.47.12.92.92,0,0,1-.37,0c-.27-.06-.27-.39-.28-.62s0-.63,0-.95,0-.84-.06-1.26c0,.11,0,.22,0,.33a11.41,11.41,0,0,1-.32,2.55s0,0,0,0a5.62,5.62,0,0,0-.58,0c-.49,0-1,.13-1.47.17l-.08,2.68,2.56.07,2.36.07,3.53.1,2.7.07,8.12.23L76,55.5Z" class="cls-17"/><path data-cppathid="10059" d="M68,55.28l-2.36-.06-3.88-.11L59,55,56.7,55l-.05,1.54c.49,0,1,.06,1.48.06a0,0,0,0,1,0,0c0,.45,0,.91.08,1.36.14,1.52.48,6.4.79,5.25,0-.1,0-6.23.12-6.3s.22-.05.31-.06c.6,0,1.19-.18,1.79-.22,0,0,0,0,0,0a8.67,8.67,0,0,1,.13,1.61c0,.25.09.5.14.76v-.13c0-.1.06-.26.06-.36A6.82,6.82,0,0,1,61.78,57c.17-.34.56-.15.87-.15.48,0,1,.07,1.42.06a23.21,23.21,0,0,0,2.36-.19c.83-.09,1.65-.2,2.48-.31s1.65-.22,2.47-.3,1.66-.14,2.5-.19,1.38-.1,2.07-.13v-.3Z" class="cls-17"/><rect data-cppathid="10060" transform="translate(1.57 -1.83) rotate(1.6)" height="1.42" width="20.25" y="54.69" x="56.14" class="cls-18"/><path data-cppathid="10061" d="M76.4,56.43h0l-20.27-.57,0-1.49h0l20.27.56Zm-20.23-.65,20.16.57,0-1.34L56.2,54.45Z" class="cls-16"/><rect data-cppathid="10062" transform="translate(1.56 -1.83) rotate(1.6)" height="0.21" width="20.25" y="54.69" x="56.16" class="cls-19"/><rect data-cppathid="10063" transform="translate(1.58 -1.83) rotate(1.6)" height="0.64" width="20.25" y="55.46" x="56.13" class="cls-20"/><path data-cppathid="10064" d="M57.29,63.64c0-.6-.07-1.19-.11-1.79,0-.81-.09-1.61-.15-2.41,0-.4-.05-.8-.08-1.2s0-.77-.08-1.16c0-.16,0-.31,0-.47v-.37a.48.48,0,0,0-.07-.31.3.3,0,0,0-.08-.08l0,.66h0l-.2,7.11Z" class="cls-21"/><path data-cppathid="10065" d="M59.46,58.28a11.06,11.06,0,0,0,0,1.41,4.35,4.35,0,0,0,.22,1.14,4.49,4.49,0,0,0,0-.64A14.73,14.73,0,0,0,59.48,58,2.45,2.45,0,0,1,59.46,58.28Z" class="cls-21"/><path data-cppathid="10066" d="M60.73,59.57c0-.13,0-.25,0-.38a9.42,9.42,0,0,0-.1-1.4A8.15,8.15,0,0,0,60.73,59.57Z" class="cls-21"/><path data-cppathid="10067" d="M57.42,54.84a7.32,7.32,0,0,0-.8-.11l-.46,0v.18A9,9,0,0,0,57.42,54.84Z" class="cls-21"/><path data-cppathid="10068" d="M67,55a8.58,8.58,0,0,0-.87.1,1.86,1.86,0,0,0,.47.09,6.47,6.47,0,0,0,1.64-.11l-.17,0A4.77,4.77,0,0,0,67,55Z" class="cls-21"/><path data-cppathid="10069" d="M65.83,57.55a11.1,11.1,0,0,0,0,2.88c0-.19.06-.39.08-.59a9.77,9.77,0,0,0-.1-2.59Z" class="cls-21"/><path data-cppathid="10070" d="M63.53,59c0,.3,0,.59,0,.88a13.13,13.13,0,0,0,.08,1.54c0-.21,0-.42,0-.63,0-.86-.06-1.71-.11-2.57C63.52,58.43,63.53,58.69,63.53,59Z" class="cls-21"/><path data-cppathid="10071" d="M62.2,60.1c0,.52.07,1,.14,1.55,0-.22,0-.44,0-.66a19.7,19.7,0,0,0-.15-2.77A14.78,14.78,0,0,0,62.2,60.1Z" class="cls-21"/><rect data-cppathid="10072" transform="translate(-47.91 46.78) rotate(-85.98)" height="0.55" width="4.48" y="48.81" x="-1.1" class="cls-22"/><path data-cppathid="10073" d="M1.29,51.38l-.63-.05L1,46.79l.63,0Zm-.54-.12.47,0,.31-4.38-.47,0Z" class="cls-23"/><rect data-cppathid="10074" transform="translate(-45.63 49.57) rotate(-85.98)" height="0.55" width="4.48" y="48.99" x="1.53" class="cls-22"/><path data-cppathid="10075" d="M3.93,51.56l-.63-.05L3.62,47l.63,0Zm-.55-.12.47,0,.31-4.38-.47,0Z" class="cls-23"/><rect data-cppathid="10076" transform="translate(-43.36 52.37) rotate(-85.98)" height="0.55" width="4.48" y="49.16" x="4.17" class="cls-22"/><path data-cppathid="10077" d="M6.56,51.73l-.63,0,.32-4.54.63,0ZM6,51.62l.47,0,.31-4.39-.48,0Z" class="cls-23"/><rect data-cppathid="10078" transform="translate(-41.09 55.16) rotate(-85.98)" height="0.55" width="4.48" y="49.34" x="6.8" class="cls-22"/><path data-cppathid="10079" d="M9.2,51.91l-.63,0,.32-4.55.62,0Zm-.55-.12.47,0,.31-4.39-.47,0Z" class="cls-23"/><rect data-cppathid="10080" transform="translate(-38.82 57.95) rotate(-85.98)" height="0.55" width="4.48" y="49.52" x="9.44" class="cls-22"/><path data-cppathid="10081" d="M11.83,52.09l-.63,0,.32-4.55.63,0ZM11.29,52l.47,0,.3-4.39-.47,0Z" class="cls-23"/><rect data-cppathid="10082" transform="translate(-36.54 60.75) rotate(-85.98)" height="0.55" width="4.48" y="49.7" x="12.07" class="cls-22"/><path data-cppathid="10083" d="M14.46,52.27l-.62-.05.32-4.54.62,0Zm-.54-.12.47,0,.31-4.38-.47,0Z" class="cls-23"/><rect data-cppathid="10084" transform="translate(-34.27 63.54) rotate(-85.99)" height="0.55" width="4.48" y="49.88" x="14.71" class="cls-22"/><path data-cppathid="10085" d="M17.1,52.45l-.63-.05.32-4.54.63,0Zm-.55-.12.48,0,.3-4.38-.47,0Z" class="cls-23"/><rect data-cppathid="10086" transform="translate(-32 66.34) rotate(-85.98)" height="0.55" width="4.48" y="50.05" x="17.34" class="cls-22"/><path data-cppathid="10087" d="M19.73,52.62l-.62,0L19.42,48l.63,0Zm-.54-.11.47,0L20,48.15l-.47,0Z" class="cls-23"/><rect data-cppathid="10088" transform="matrix(0.07, -1, 1, 0.07, -29.73, 69.13)" height="0.55" width="4.48" y="50.23" x="19.98" class="cls-22"/><path data-cppathid="10089" d="M22.37,52.8l-.63,0,.32-4.55.63,0Zm-.55-.12.47,0,.31-4.39-.47,0Z" class="cls-23"/><rect data-cppathid="10090" transform="translate(-27.45 71.92) rotate(-85.98)" height="0.55" width="4.48" y="50.41" x="22.61" class="cls-22"/><path data-cppathid="10091" d="M25,53l-.63,0,.32-4.55.63,0Zm-.54-.12.47,0,.31-4.39-.47,0Z" class="cls-23"/><rect data-cppathid="10092" transform="translate(-25.18 74.72) rotate(-85.99)" height="0.55" width="4.48" y="50.59" x="25.24" class="cls-22"/><path data-cppathid="10093" d="M27.64,53.16l-.63,0,.32-4.54.63,0ZM27.09,53l.47,0,.31-4.38-.47,0Z" class="cls-23"/><rect data-cppathid="10094" transform="translate(-22.91 77.51) rotate(-85.98)" height="0.55" width="4.48" y="50.77" x="27.88" class="cls-22"/><path data-cppathid="10095" d="M30.27,53.34l-.63-.05L30,48.75l.63,0Zm-.54-.12.47,0,.31-4.38-.48,0Z" class="cls-23"/><path data-cppathid="10096" d="M31.29,49h0l-30.7-2a.28.28,0,1,1,0-.55l30.7,2a.28.28,0,0,1,.26.29A.28.28,0,0,1,31.29,49Z" class="cls-8"/><path data-cppathid="10097" d="M31.29,49.05h0l-30.7-2A.39.39,0,0,1,.35,47a.3.3,0,0,1-.07-.23.31.31,0,0,1,.33-.29l30.7,2a.3.3,0,0,1,.22.1.4.4,0,0,1,.08.23A.33.33,0,0,1,31.29,49.05ZM.59,46.54a.24.24,0,0,0-.24.22.27.27,0,0,0,.06.17A.25.25,0,0,0,.57,47l30.71,2a.24.24,0,0,0,.25-.22.24.24,0,0,0-.06-.17.21.21,0,0,0-.16-.08L.6,46.54Z" class="cls-9"/><polygon data-cppathid="10098" points="71.01 53.91 70.56 53.89 70.64 49.64 71.09 49.65 71.01 53.91" class="cls-24"/><path data-cppathid="10099" d="M71.05,54l-.53,0,.08-4.34.53,0Zm-.45-.1.37,0,.08-4.18h-.37Z" class="cls-25"/><polygon data-cppathid="10100" points="73.17 53.99 72.72 53.97 72.8 49.72 73.25 49.73 73.17 53.99" class="cls-24"/><path data-cppathid="10101" d="M73.21,54l-.53,0,.08-4.34.53,0Zm-.45-.1.37,0,.08-4.18h-.37Z" class="cls-25"/><polygon data-cppathid="10102" points="75.33 54.07 74.88 54.05 74.96 49.8 75.41 49.81 75.33 54.07" class="cls-24"/><path data-cppathid="10103" d="M75.37,54.11l-.53,0,.08-4.34.53,0Zm-.45-.1.37,0,.08-4.18H75Z" class="cls-25"/><polygon data-cppathid="10104" points="77.49 54.15 77.04 54.13 77.12 49.88 77.57 49.89 77.49 54.15" class="cls-24"/><path data-cppathid="10105" d="M77.53,54.19l-.53,0,.08-4.34.53,0Zm-.45-.1.37,0,.08-4.18h-.37Z" class="cls-25"/><polygon data-cppathid="10106" points="79.65 54.23 79.2 54.21 79.28 49.96 79.73 49.97 79.65 54.23" class="cls-24"/><path data-cppathid="10107" d="M79.69,54.27l-.53,0,.08-4.34.53,0Zm-.45-.1.37,0L79.69,50h-.37Z" class="cls-25"/><polygon data-cppathid="10108" points="81.81 54.31 81.36 54.29 81.44 50.04 81.89 50.05 81.81 54.31" class="cls-24"/><path data-cppathid="10109" d="M81.85,54.35l-.53,0L81.4,50l.53,0Zm-.45-.1.37,0,.08-4.18h-.38Z" class="cls-25"/><polygon data-cppathid="10110" points="83.97 54.39 83.52 54.37 83.59 50.12 84.05 50.13 83.97 54.39" class="cls-24"/><path data-cppathid="10111" d="M84,54.43l-.53,0,.09-4.33.53,0Zm-.45-.1.38,0L84,50.17h-.37Z" class="cls-25"/><polygon data-cppathid="10112" points="86.12 54.47 85.67 54.45 85.75 50.2 86.2 50.21 86.12 54.47" class="cls-24"/><path data-cppathid="10113" d="M86.16,54.51l-.53,0,.08-4.33.53,0Zm-.45-.1.38,0,.07-4.18h-.37Z" class="cls-25"/><polygon data-cppathid="10114" points="88.28 54.55 87.83 54.53 87.91 50.28 88.36 50.29 88.28 54.55" class="cls-24"/><path data-cppathid="10115" d="M88.32,54.59l-.53,0,.08-4.33.53,0Zm-.45-.1.37,0,.08-4.18H88Z" class="cls-25"/><polygon data-cppathid="10116" points="90.44 54.63 89.99 54.61 90.07 50.36 90.52 50.37 90.44 54.63" class="cls-24"/><path data-cppathid="10117" d="M90.48,54.67l-.53,0L90,50.32l.53,0Zm-.45-.1.37,0,.08-4.18h-.37Z" class="cls-25"/><polygon data-cppathid="10118" points="92.6 54.71 92.15 54.69 92.23 50.44 92.68 50.45 92.6 54.71" class="cls-24"/><path data-cppathid="10119" d="M92.64,54.75l-.53,0,.08-4.33.53,0Zm-.45-.1.37,0,.08-4.18h-.37Z" class="cls-25"/><polygon data-cppathid="10120" points="94.76 54.79 94.31 54.77 94.39 50.52 94.84 50.53 94.76 54.79" class="cls-24"/><path data-cppathid="10121" d="M94.8,54.83l-.53,0,.08-4.33.53,0Zm-.45-.1.37,0,.08-4.18h-.37Z" class="cls-25"/><path data-cppathid="10122" d="M95.45,50.68h0l-25.15-.82a.26.26,0,0,1-.23-.27.25.25,0,0,1,.23-.26l25.16.82a.27.27,0,0,1,0,.53Z" class="cls-8"/><path data-cppathid="10123" d="M95.44,50.72h0L70.28,49.9a.31.31,0,0,1-.26-.31.37.37,0,0,1,.1-.23.28.28,0,0,1,.17-.07l25.16.83a.29.29,0,0,1,.26.3.3.3,0,0,1-.26.3h0ZM70.29,49.37a.18.18,0,0,0-.12.05.24.24,0,0,0-.07.17.22.22,0,0,0,.19.23l25.15.82h0a.21.21,0,0,0,.18-.22.22.22,0,0,0-.19-.23l-25.15-.82Z" class="cls-9"/><path data-cppathid="10124" d="M94.48,57.07,73,56.09a10.73,10.73,0,0,1-1.33,3.51l21.93.15C93.92,58.77,94.22,57.87,94.48,57.07Z" class="cls-26"/><path data-cppathid="10125" d="M93.59,59.79h0l-22-.15,0-.06a10.77,10.77,0,0,0,1.32-3.49v0h0l21.57,1v.05c-.29.88-.6,1.78-.92,2.67ZM71.7,59.56l21.83.15c.32-.87.62-1.74.89-2.6L73,56.13A10.79,10.79,0,0,1,71.7,59.56Z" class="cls-27"/><path data-cppathid="10126" d="M21.41,79.81l52.9,1.5A27.1,27.1,0,0,0,84,76.94l-69-.49A31,31,0,0,0,21.41,79.81Z" class="cls-26"/><path data-cppathid="10127" d="M74.31,81.35h0L21.4,79.85h0A31.27,31.27,0,0,1,15,76.49l-.1-.08H15l69.09.49L84,77a27.37,27.37,0,0,1-9.65,4.37Zm-52.9-1.58,52.89,1.5A27.35,27.35,0,0,0,83.84,77L15.1,76.49A31.52,31.52,0,0,0,21.41,79.77Z" class="cls-27"/><path data-cppathid="10128" d="M35.36,82.85c16.12,1.46,29.62,1,39-1.54l-52.9-1.5A51.25,51.25,0,0,0,35.36,82.85Z" class="cls-26"/><path data-cppathid="10129" d="M52.1,83.7c-5.16,0-10.76-.27-16.74-.81a51.54,51.54,0,0,1-14-3l-.21-.08,53.4,1.52-.26.07C68.47,82.91,60.94,83.7,52.1,83.7Zm-16.73-.89c16.06,1.46,29.42,1,38.67-1.47l-52.4-1.49A51.68,51.68,0,0,0,35.37,82.81Z" class="cls-27"/><path data-cppathid="10130" d="M29.8,57,0,55.15a6.56,6.56,0,0,1,4.85,4l25.76.17A7.27,7.27,0,0,1,29.8,57Z" class="cls-26"/><path data-cppathid="10131" d="M30.72,59.37h-.07L4.87,59.2v0a6.56,6.56,0,0,0-4.83-4v-.08L29.84,57v0a7.41,7.41,0,0,0,.84,2.28Zm-25.8-.25,25.66.17a7.45,7.45,0,0,1-.81-2.22L.5,55.22A6.52,6.52,0,0,1,4.92,59.12Z" class="cls-27"/><path data-cppathid="10132" d="M67.24,63.38a10.5,10.5,0,0,1-1.81.46l26.21.79c.75-1.74,1.39-3.4,1.92-4.88L71.63,59.6A8.61,8.61,0,0,1,67.24,63.38Z" class="cls-26"/><path data-cppathid="10133" d="M91.66,64.67h0l-26.59-.8.37-.07a10.69,10.69,0,0,0,1.81-.46h0a8.54,8.54,0,0,0,4.37-3.76v0h0l22,.15,0,0c-.6,1.67-1.25,3.32-1.92,4.89Zm-25.87-.86,25.82.78c.67-1.54,1.3-3.16,1.9-4.8l-21.85-.15a8.64,8.64,0,0,1-4.41,3.77h0A9,9,0,0,1,65.79,63.81Z" class="cls-27"/><path data-cppathid="10134" d="M89.65,68.9,7,67.1a21.17,21.17,0,0,0,2,3.49l78.17,2.7C88.07,71.86,88.9,70.38,89.65,68.9Z" class="cls-26"/><path data-cppathid="10135" d="M87.2,73.33h0L9,70.62H9a21.47,21.47,0,0,1-2-3.49l0-.06H7l82.67,1.8,0,.06c-.79,1.56-1.62,3-2.47,4.39ZM9,70.55l78.13,2.7c.83-1.33,1.64-2.78,2.43-4.31L7.1,67.14A22,22,0,0,0,9,70.55Z" class="cls-27"/><path data-cppathid="10136" d="M86.74,74c.15-.23.3-.46.44-.69L9,70.59a22.94,22.94,0,0,0,6,5.86l69,.49A12.12,12.12,0,0,0,86.74,74Z" class="cls-26"/><path data-cppathid="10137" d="M84,77h0l-69-.49h0a23.2,23.2,0,0,1-6-5.88l-.05-.07H9l78.24,2.7,0,.06c-.16.27-.3.48-.43.69A12.45,12.45,0,0,1,84,77Zm-69-.56,69,.48A12.3,12.3,0,0,0,86.71,74l0,0,0,0,.4-.63-78-2.7A23.23,23.23,0,0,0,15,76.42Z" class="cls-27"/><path data-cppathid="10138" d="M30.65,59.33,4.89,59.16a6.38,6.38,0,0,1,.32,1.32c.06.43.13.94.25,1.54l29.76.9A7.45,7.45,0,0,1,30.65,59.33Z" class="cls-26"/><path data-cppathid="10139" d="M35.53,63,5.42,62.06v0c-.12-.62-.2-1.15-.25-1.54a6.85,6.85,0,0,0-.31-1.3l0-.06h0l25.78.17v0a7.52,7.52,0,0,0,4.56,3.57Zm-30-1,29.45.89a7.53,7.53,0,0,1-4.32-3.5L5,59.2a6.54,6.54,0,0,1,.3,1.27C5.3,60.86,5.38,61.37,5.49,62Z" class="cls-27"/><path data-cppathid="10140" d="M91.64,64.63l-26.21-.79C58.65,65,42.07,64,36.62,63.22a9.32,9.32,0,0,1-1.4-.3L5.46,62A22.52,22.52,0,0,0,7,67.1l82.61,1.8C90.38,67.46,91,66,91.64,64.63Z" class="cls-26"/><path data-cppathid="10141" d="M89.67,68.94,7,67.14v0A23.1,23.1,0,0,1,5.42,62v0h0l29.77.9h0a9.91,9.91,0,0,0,1.38.3c2.46.35,7.86.83,13.9,1.05a82.69,82.69,0,0,0,14.9-.43h0l26.27.8,0,.05c-.64,1.49-1.31,2.92-2,4.27ZM7.07,67.06l82.56,1.8c.66-1.32,1.32-2.73,2-4.19l-26.15-.79a82.85,82.85,0,0,1-14.91.43c-6.05-.22-11.45-.7-13.91-1.05a10.06,10.06,0,0,1-1.39-.3l-29.71-.9A22.23,22.23,0,0,0,7.07,67.06Z" class="cls-27"/><g class="cls-28"><path data-cppathid="10142" d="M94.48,57.07,73,56.09a10.73,10.73,0,0,1-1.33,3.51l21.93.15C93.92,58.77,94.22,57.87,94.48,57.07Z" class="cls-26"/><path data-cppathid="10143" d="M18.44,76.48l-3.47,0a31,31,0,0,0,6.44,3.36l4.83.13a37.86,37.86,0,0,1-4.35-1.85A25.75,25.75,0,0,1,18.44,76.48Z" class="cls-26"/><path data-cppathid="10144" d="M42,83.13a67.86,67.86,0,0,1-13.56-2.47c-.72-.22-1.44-.46-2.15-.72l-4.83-.13a51.25,51.25,0,0,0,14,3c3.82.35,7.48.58,11,.71C44.87,83.41,43.41,83.26,42,83.13Z" class="cls-26"/><path data-cppathid="10145" d="M7.44,58.05a10.75,10.75,0,0,0-1.22-2.51L0,55.15a6.56,6.56,0,0,1,4.85,4l2.91,0C7.69,58.8,7.58,58.43,7.44,58.05Z" class="cls-26"/><path data-cppathid="10146" d="M67.24,63.38a10.5,10.5,0,0,1-1.81.46l26.21.79c.75-1.74,1.39-3.4,1.92-4.88L71.63,59.6A8.61,8.61,0,0,1,67.24,63.38Z" class="cls-26"/><path data-cppathid="10147" d="M10.41,67.18,7,67.1a21.17,21.17,0,0,0,2,3.49l3.39.11A26.51,26.51,0,0,1,10.41,67.18Z" class="cls-26"/><path data-cppathid="10148" d="M18.32,76.41A18,18,0,0,1,13,71.58c-.21-.29-.42-.58-.62-.88L9,70.59a22.94,22.94,0,0,0,6,5.86l3.47,0Z" class="cls-26"/><path data-cppathid="10149" d="M8.18,60.65c-.11-.5-.24-1-.38-1.47l-2.91,0a6.38,6.38,0,0,1,.32,1.32c.06.43.13.94.25,1.54l3.09.09C8.42,61.63,8.29,61.14,8.18,60.65Z" class="cls-26"/><path data-cppathid="10150" d="M9.34,64.59c-.3-.82-.56-1.64-.79-2.48L5.46,62A22.52,22.52,0,0,0,7,67.1l3.37.08C10,66.33,9.65,65.46,9.34,64.59Z" class="cls-26"/></g><path data-cppathid="10151" d="M73,56.09a10.73,10.73,0,0,1-1.33,3.51,8.61,8.61,0,0,1-4.39,3.78,10.5,10.5,0,0,1-1.81.46C58.65,65,42.07,64,36.62,63.22a9.32,9.32,0,0,1-1.4-.3,7.45,7.45,0,0,1-4.57-3.59A7.27,7.27,0,0,1,29.8,57L0,55.15a6.51,6.51,0,0,1,1.12.33c1.2.08,2.4.21,3.59.32,1.89.17,3.78.28,5.67.44s3.87.32,5.8.46,3.81.31,5.71.52,3.83.44,5.75.62c0,0,.06.06,0,.07a31,31,0,0,1-5.77.57c-1.77,0-3.53,0-5.29,0s-3.72,0-5.57,0c-2.14,0-4.28.05-6.41.12a5.36,5.36,0,0,1,.24.6c.06.17.12.35.17.53a8,8,0,0,0,.85,0c.53,0,1.07,0,1.6,0l3.24-.12c1.07,0,2.15,0,3.23,0s2.17,0,3.26.09c2.18.09,4.35.22,6.52.36q1.2.09,2.4.12c.75,0,1.51.06,2.25.15A5.85,5.85,0,0,1,32.25,62a0,0,0,0,1,0,.07,18.68,18.68,0,0,1-3.26,0C27.85,62,26.73,62,25.6,62c-4.12-.16-8.24-.41-12.37-.48-2.63-.06-5.25-.06-7.88-.06,0,.19.07.39.11.61s.09.45.14.7c1.61.22,3.24.23,4.87.32q3.28.2,6.57.32c7.84.31,15.7.62,23.53,1.15,3.88.26,7.76.59,11.65.79l5.76.32A33.76,33.76,0,0,1,63.2,66a0,0,0,0,1,0,.08,12.55,12.55,0,0,1-3.11.32c-1.12,0-2.23,0-3.34.08-2.42.1-4.83.21-7.25.29-4.32.14-8.63.1-13,0s-8.55,0-12.82,0-8.68.15-13,.06c-1.25,0-2.51,0-3.76,0L7,67.1l.28.61c4.39,0,8.78,0,13.18.08L33.64,68c4.41.06,8.83,0,13.24.22s8.67.56,13,.82c2.16.13,4.32.22,6.49.34,1,.06,2.05.11,3.08.12a9.37,9.37,0,0,1,2.69.28s0,.05,0,.07a3,3,0,0,1-.86.43,19,19,0,0,1-4.52.44c-2.25.16-4.52.14-6.77.17-4.6.07-9.19.1-13.79,0s-9.25-.23-13.88-.33-9.23-.17-13.85-.25L8.7,70.13l.31.46c.19.27.39.54.6.82H10c3.64.1,7.28.32,10.92.56s7.31.48,11,.63,7.33.21,11,.3,7.3.26,11,.42c1.81.08,3.63.16,5.45.29l2.54.19a9.06,9.06,0,0,1,2.37.47s0,.06,0,.08a7.18,7.18,0,0,1-.79.38,13.76,13.76,0,0,1-4,.82c-1.46.11-2.93.1-4.4.1-3.46,0-6.92.21-10.39.23-3.86,0-7.73-.2-11.59-.32s-7.62-.08-11.43-.19c-2.72-.08-5.43-.18-8.15-.1.49.4,1,.79,1.57,1.17l.71.48c2.63.11,5.25.11,7.87.08s5.48-.09,8.21-.1,5.57.07,8.35.15c1.42,0,2.85.08,4.27.15s2.65.16,4,.18a29.21,29.21,0,0,1,7.35.65s0,0,0,.07a2.59,2.59,0,0,1-.42.32,6.91,6.91,0,0,1-2.55.8,25.74,25.74,0,0,1-2.92.25c-2.63.11-5.26.29-7.89.31-3,0-6-.11-9-.25s-6.06-.32-9.09-.43c-1.46-.06-2.93-.11-4.4-.13.62.29,1.28.56,2,.83l1.3.48c2.78.07,5.56.19,8.34.33,3.27.16,6.53.33,9.8.43s6.61.24,9.92.46l4.91.34c1.57.1,3.13.22,4.69.46,1.38.22,2.75.48,4.12.75a66.81,66.81,0,0,0,9.82-1.75A27.1,27.1,0,0,0,84,76.94a12.12,12.12,0,0,0,2.79-3c.15-.23.3-.46.44-.69.89-1.43,1.72-2.91,2.47-4.39s1.39-2.88,2-4.27c.75-1.74,1.39-3.4,1.92-4.88.36-1,.66-1.88.92-2.68Z" class="cls-29"/><path data-cppathid="10152" d="M87.74,56.77c-.62,2.48-1.16,5-1.81,7.45a41.85,41.85,0,0,1-3.56,9.5,15,15,0,0,1-2.57,3.46,17,17,0,0,1-3.39,2.56q-1.65,1-3.36,1.89l1.26-.32A27.1,27.1,0,0,0,84,76.94a12.12,12.12,0,0,0,2.79-3c.15-.23.3-.46.44-.69.89-1.43,1.72-2.91,2.47-4.39s1.39-2.88,2-4.27c.75-1.74,1.39-3.4,1.92-4.88.36-1,.66-1.88.92-2.68Z" class="cls-29"/><path data-cppathid="10153" d="M75.8,56.91c3.64,0,7.29.1,10.93.2,2.54.06,5.09.16,7.63.32l.12-.36L73,56.09s0,.32-.19.84C73.78,56.91,74.79,56.9,75.8,56.91Z" class="cls-30"/><path data-cppathid="10154" d="M68.41,64.36c2.32.08,4.64.08,7,.15s4.81.19,7.22.28,4.85.14,7.27.33l1.51.12.27-.61.23-.54-3.09-.16q-6.32-.34-12.64-.46c-2.11,0-4.21,0-6.32,0-1,0-1.95,0-2.92,0a12.45,12.45,0,0,1-1.47.34c-.48.08-1,.16-1.58.22C65.36,64.22,66.89,64.31,68.41,64.36Z" class="cls-30"/><path data-cppathid="10155" d="M71,72.18q-4.62.1-9.24.24c1.62,0,3.23,0,4.84.1,4.21.12,8.41.3,12.61.38,2.71,0,5.42.08,8.12.19l.52-.86c-1.78-.07-3.56-.11-5.34-.13C78.65,72.06,74.81,72.1,71,72.18Z" class="cls-30"/><path data-cppathid="10156" d="M80.43,76.13c-1.91,0-3.81-.1-5.72-.13-1,0-1.92,0-2.88,0s-1.9.07-2.85.1c-3.7.13-7.42.1-11.11.54l.43.1a16.17,16.17,0,0,0,2.78.19c1,0,1.9,0,2.86.08q3,.12,6,.19c2,0,4,0,6,0s4-.07,6,0l1.63,0,.27-.21q.51-.39,1-.81C83.42,76.17,81.92,76.16,80.43,76.13Z" class="cls-30"/><path data-cppathid="10157" d="M75.09,80c-1.84.06-3.69.13-5.54.14s-3.71,0-5.57,0c-3.61,0-7.21.45-10.8.78,1.7.15,3.41.21,5.12.25s3.29.07,4.93.14,3.1.2,4.65.3,3,.18,4.48.2q1-.23,2-.48a37.48,37.48,0,0,0,4.23-1.39C77.39,79.92,76.24,80,75.09,80Z" class="cls-30"/><path data-cppathid="10158" d="M89.76,67.42l-3.67.1c-4.4.11-8.79.36-13.19.45s-8.66-.11-13,.26a3.88,3.88,0,0,0,.49.11,15.64,15.64,0,0,0,3,.17l3.1,0c2.24,0,4.49-.11,6.73,0s4.48.32,6.71.5,4.5.2,6.75.21l2.85,0c0-.09.09-.18.13-.26.25-.5.5-1,.73-1.49Z" class="cls-30"/><path data-cppathid="10159" d="M75.88,60.13c3.81.11,7.62.12,11.43.22q3,.09,5.93.28c.11-.3.22-.59.32-.88a2,2,0,0,1,.1-.26l-2.92-.1c-3.55-.1-7.11-.12-10.67-.17-2.71,0-5.42-.07-8.14-.16q-.14.27-.3.54c-.06.12-.14.23-.21.35C72.9,60,74.39,60.09,75.88,60.13Z" class="cls-30"/><path data-cppathid="10160" d="M36.62,63.22c6,.86,25.69,2,30.62.16S73,56.09,73,56.09l21.52,1c.69-2.12,1-3.46,1-3.46l-25.37-.88s-.24,7.12-5.8,8c-5.25.82-26.94,1.57-30.07-2.45a7,7,0,0,1-1.41-5.69L.23,50.77,0,55.15,29.8,57A7.69,7.69,0,0,0,36.62,63.22Z" class="cls-8"/><path data-cppathid="10161" d="M56.33,64.42c-1.2,0-2.53,0-4,0-6.43-.17-12.78-.69-15.73-1.11a8,8,0,0,1-5.71-3.44,7.49,7.49,0,0,1-1.13-2.75L0,55.19v0l.19-4.42h0l32.68,1.8v0a7,7,0,0,0,1.4,5.66c.93,1.19,4.15,2.69,14.21,3a108.86,108.86,0,0,0,15.83-.58,6.44,6.44,0,0,0,5-4.3,12.29,12.29,0,0,0,.81-3.66v0l25.46.9v0s-.35,1.37-1,3.47v0h0L73,56.13a10.59,10.59,0,0,1-1,2.92,8.84,8.84,0,0,1-4.73,4.36C66.2,63.82,63.43,64.42,56.33,64.42ZM36.62,63.18c3,.42,9.29.94,15.72,1.11,7.48.2,12.76-.14,14.89-1A8.79,8.79,0,0,0,71.91,59a10.59,10.59,0,0,0,1-2.92v0h0l21.49,1c.6-1.86,1-3.12,1-3.38l-25.28-.88a12.57,12.57,0,0,1-.82,3.64,6.45,6.45,0,0,1-5,4.34,107.37,107.37,0,0,1-15.84.59C38.42,61,35.18,59.5,34.24,58.28a7.16,7.16,0,0,1-1.43-5.67L.27,50.81.08,55.12,29.84,57v0A7.51,7.51,0,0,0,31,59.78,7.73,7.73,0,0,0,36.62,63.18Z" class="cls-9"/><path data-cppathid="10162" d="M8.6,52c1.14.07,22.16,1.48,23.2,1.28a19.37,19.37,0,0,0,1.47,4.05c1.26,1.92,3.61,2.74,5.78,3.07.31.05.63.09.94.12-2.77-.48-4.89-1.21-5.72-2.27a7,7,0,0,1-1.41-5.69L.23,50.77l0,.83C1.93,52,7.58,52,8.6,52Z" class="cls-14"/><path data-cppathid="10163" d="M55.37,61.68A46.16,46.16,0,0,0,61,61.6a18.9,18.9,0,0,0,5.17-.85,6.63,6.63,0,0,0,2.2-1.23,6.42,6.42,0,0,0,1.35-1.71,17.39,17.39,0,0,0,1.51-4.1l0,0c2-.08,4.11-.1,6.16-.08,3.66,0,7.31.21,11,.35q3.48.15,7,.21c.1-.36.14-.55.14-.55l-25.37-.88s-.24,7.12-5.8,8a93.61,93.61,0,0,1-12.2.65C53.21,61.52,54.28,61.62,55.37,61.68Z" class="cls-14"/><path data-cppathid="10164" d="M91.22,55.49c-1.9-.06-3.79-.17-5.69-.28l-2.85-.14c-.91,0-1.83,0-2.75-.09-1.85-.08-3.7-.24-5.56-.33-.81,0-1.62-.07-2.43-.07a12.25,12.25,0,0,1-2.59,5.21,8.55,8.55,0,0,1-3.9,2.44,26.31,26.31,0,0,1-6.24.88c-2.17.09-4.34.06-6.51,0s-4.49-.06-6.73-.22c-1.91-.14-3.83-.36-5.73-.65a16.3,16.3,0,0,1-4.9-1.4A6.65,6.65,0,0,1,32,57.31a8.74,8.74,0,0,1-.41-2.83c-2.71-.08-5.41-.18-8.11-.28l-9.72-.42c-1.53-.07-3.05-.14-4.58-.16l-4.52,0c-1.5,0-3-.06-4.5-.17L0,55.15,29.8,57a7.69,7.69,0,0,0,6.82,6.19c6,.86,25.69,2,30.62.16S73,56.09,73,56.09l21.52,1c.19-.57.35-1.1.49-1.55C93.72,55.55,92.47,55.53,91.22,55.49Z" class="cls-31"/><circle data-cppathid="10165" r="4.27" cy="61.67" cx="82.47" class="cls-32"/><path data-cppathid="10166" d="M82.47,66a4.31,4.31,0,1,1,4.31-4.3A4.31,4.31,0,0,1,82.47,66Zm0-8.53a4.23,4.23,0,1,0,4.23,4.23A4.23,4.23,0,0,0,82.47,57.44Z" class="cls-33"/><circle data-cppathid="10167" r="4" cy="61.59" cx="82.49" class="cls-34"/><circle data-cppathid="10168" transform="translate(8.39 133.2) rotate(-80.78)" r="3.42" cy="61.67" cx="82.47" class="cls-32"/><path data-cppathid="10169" d="M82.47,65.13a3.46,3.46,0,1,1,3.46-3.46A3.47,3.47,0,0,1,82.47,65.13Zm0-6.84a3.38,3.38,0,1,0,3.38,3.38A3.38,3.38,0,0,0,82.47,58.29Z" class="cls-33"/><circle data-cppathid="10170" r="2.84" cy="61.91" cx="82.49" class="cls-35"/><path data-cppathid="10171" d="M77.71,74.81a1.79,1.79,0,0,0-.72-.19,2.17,2.17,0,0,0-.36,0h0a.74.74,0,0,0-.65.24A.11.11,0,0,0,76,75a1,1,0,0,0,.38.15,3,3,0,0,0,.51.08c.29,0,.7,0,.87-.28C77.75,74.91,77.76,74.84,77.71,74.81Z" class="cls-36"/><path data-cppathid="10172" d="M79.72,74.23a.73.73,0,0,0-.7-.14.58.58,0,0,0-.29.09s-.09.11,0,.15a.82.82,0,0,0,.46.18.84.84,0,0,0,.49-.08C79.72,74.39,79.8,74.3,79.72,74.23Z" class="cls-36"/><g class="cls-37"><path data-cppathid="10173" d="M81,75.17v0h0v0h-.17s0-.05,0,0h0v0a0,0,0,0,0,0,0s0,0,0,0,0,0,0,0,0,0,0,0,0,0,0,0h.15l0,0a.08.08,0,0,0,0,0v0h0Z" class="cls-26"/><path data-cppathid="10174" d="M81,75.11Z" class="cls-26"/></g><path data-cppathid="10175" d="M71.39,74.69a1.32,1.32,0,0,0-.56-.14,1.62,1.62,0,0,0-.58.07c-.09,0-.18.17-.08.24l.07,0a.57.57,0,0,0,.21.13,1.32,1.32,0,0,0,.33.08.62.62,0,0,0,.63-.25S71.45,74.72,71.39,74.69Z" class="cls-36"/><path data-cppathid="10176" d="M73.15,75.49a.5.5,0,0,0-.24-.09h0a.23.23,0,0,0-.11,0,.48.48,0,0,0-.31,0,.1.1,0,0,0,0,.16.62.62,0,0,0,.29.12.74.74,0,0,0,.36,0C73.15,75.64,73.23,75.54,73.15,75.49Z" class="cls-36"/><path data-cppathid="10177" d="M78.52,77.94a1,1,0,0,0-.7-.27,2.31,2.31,0,0,0-.37,0,.67.67,0,0,0-.71.28.11.11,0,0,0,0,.14.86.86,0,0,0,.35.16,1.91,1.91,0,0,0,.48.06,1.33,1.33,0,0,0,.87-.2S78.57,78,78.52,77.94Z" class="cls-36"/><path data-cppathid="10178" d="M70.21,78.43h0l0,0a.12.12,0,0,0-.08,0H70l0,0a.28.28,0,0,0-.25,0s0,0,0,.07a.09.09,0,0,0,0,.07l.08.06.1,0H70l.14,0a.14.14,0,0,0,.11-.09s0,0,0-.05A.07.07,0,0,0,70.21,78.43Z" class="cls-36"/><path data-cppathid="10179" d="M62.32,78.81a.53.53,0,0,0-.4-.19.68.68,0,0,0-.34.06l-.13,0a.12.12,0,0,0-.08.16.18.18,0,0,0,.05.07s0,0,0,0a.7.7,0,0,0,.28.12.71.71,0,0,0,.51-.1C62.31,79,62.37,78.88,62.32,78.81Z" class="cls-36"/><path data-cppathid="10180" d="M66,78.18s0,0,0,0l-.08,0h-.09l-.05,0a0,0,0,0,0,0,0l0,0a.09.09,0,0,0,0,0,0,0,0,0,0,0,.06h0v0l0,0,0,0h.1l0,0,0,0h0l0,0A0,0,0,0,0,66,78.18Z" class="cls-36"/><path data-cppathid="10181" d="M66.67,66.59a1.56,1.56,0,0,0-.73-.19,1.48,1.48,0,0,0-.36,0h0a.73.73,0,0,0-.64.23.08.08,0,0,0,0,.12,1.28,1.28,0,0,0,.38.16,2.85,2.85,0,0,0,.51.07c.28,0,.7,0,.86-.28A.09.09,0,0,0,66.67,66.59Z" class="cls-36"/><path data-cppathid="10182" d="M68.68,66a.8.8,0,0,0-.7-.14.71.71,0,0,0-.3.1c-.05,0-.08.11,0,.15a.79.79,0,0,0,.46.17.86.86,0,0,0,.5-.08C68.68,66.16,68.76,66.07,68.68,66Z" class="cls-36"/><g class="cls-37"><path data-cppathid="10183" d="M70,67v0h0l0,0h-.14l0,0s0-.05,0,0h0l0,0s0,0,0,0v0a0,0,0,0,0,0,0v0l0,0h.16l0,0s0,0,0,0h0Z" class="cls-26"/><path data-cppathid="10184" d="M69.93,66.88Z" class="cls-26"/></g><path data-cppathid="10185" d="M60.35,66.47a1.22,1.22,0,0,0-.56-.14,1.47,1.47,0,0,0-.59.06c-.08,0-.17.17-.08.24l.08,0a.57.57,0,0,0,.21.13,1.21,1.21,0,0,0,.33.07.62.62,0,0,0,.63-.25S60.41,66.5,60.35,66.47Z" class="cls-36"/><path data-cppathid="10186" d="M62.11,67.26a.53.53,0,0,0-.24-.08h0l-.11,0a.63.63,0,0,0-.3,0c-.06,0-.12.11-.06.16a.63.63,0,0,0,.3.13.64.64,0,0,0,.36,0C62.11,67.42,62.18,67.32,62.11,67.26Z" class="cls-36"/><path data-cppathid="10187" d="M67.47,69.72a.9.9,0,0,0-.7-.27,2.23,2.23,0,0,0-.36,0,.72.72,0,0,0-.72.28.11.11,0,0,0,0,.14.84.84,0,0,0,.34.17,2,2,0,0,0,.49.06,1.3,1.3,0,0,0,.86-.2S67.53,69.79,67.47,69.72Z" class="cls-36"/><path data-cppathid="10188" d="M59.17,70.21h0l0,0-.08,0H59l0,0a.22.22,0,0,0-.24,0,.14.14,0,0,0-.06.07s0,0,0,.06l.08.07a.29.29,0,0,0,.1,0h0a.09.09,0,0,0,.09,0h.14a.19.19,0,0,0,.12-.09.13.13,0,0,0,0-.06A.05.05,0,0,0,59.17,70.21Z" class="cls-36"/><path data-cppathid="10189" d="M51.28,70.59a.56.56,0,0,0-.4-.19.66.66,0,0,0-.34,0l-.14,0a.12.12,0,0,0-.08.16l0,.07,0,0a.53.53,0,0,0,.28.12.72.72,0,0,0,.52-.09A.16.16,0,0,0,51.28,70.59Z" class="cls-36"/><path data-cppathid="10190" d="M54.93,70a.08.08,0,0,0,0,0h-.22l0,0,0,0a.08.08,0,0,0,0,0,.09.09,0,0,0,0,.06h0s0,0,0,0l0,0h.11l0,0s0,0,0,0l0,0a.08.08,0,0,0,0,0A.09.09,0,0,0,54.93,70Z" class="cls-36"/><path data-cppathid="10191" d="M31.82,68.55a1.56,1.56,0,0,0-.73-.19,1.45,1.45,0,0,0-.36,0h0a.74.74,0,0,0-.64.24.08.08,0,0,0,0,.12,1.12,1.12,0,0,0,.37.16A3,3,0,0,0,31,69c.28,0,.7,0,.86-.28C31.86,68.64,31.87,68.57,31.82,68.55Z" class="cls-36"/><path data-cppathid="10192" d="M33.83,68a.82.82,0,0,0-.71-.14.51.51,0,0,0-.29.1.1.1,0,0,0,0,.15,1,1,0,0,0,1,.09C33.83,68.12,33.9,68,33.83,68Z" class="cls-36"/><g class="cls-37"><path data-cppathid="10193" d="M35.11,68.9v0H35a0,0,0,0,0,0,0h0l0,0s0,0,0,0h0a0,0,0,0,0,0,0v0a0,0,0,0,0,0,0l0,0h0s0,0,0,0H35l0,0,0,0h0v0h0Z" class="cls-26"/><path data-cppathid="10194" d="M35.07,68.84Z" class="cls-26"/></g><path data-cppathid="10195" d="M25.5,68.43a1.24,1.24,0,0,0-.57-.15,1.65,1.65,0,0,0-.58.07c-.08,0-.17.17-.08.24a.2.2,0,0,0,.08,0,.53.53,0,0,0,.2.13,1.28,1.28,0,0,0,.34.07.61.61,0,0,0,.62-.25S25.55,68.46,25.5,68.43Z" class="cls-36"/><path data-cppathid="10196" d="M27.26,69.22a.57.57,0,0,0-.24-.08h0l-.11,0a.45.45,0,0,0-.3.05c-.06,0-.12.11-.06.16a.53.53,0,0,0,.29.12.62.62,0,0,0,.36,0C27.26,69.38,27.33,69.27,27.26,69.22Z" class="cls-36"/><path data-cppathid="10197" d="M33.45,73.88a.94.94,0,0,0-.7-.26,1.53,1.53,0,0,0-.37,0,.69.69,0,0,0-.71.28.11.11,0,0,0,0,.14.75.75,0,0,0,.35.16,2.53,2.53,0,0,0,.48.07,1.33,1.33,0,0,0,.87-.2S33.5,74,33.45,73.88Z" class="cls-36"/><path data-cppathid="10198" d="M24.07,73h0l0,0A.12.12,0,0,0,24,73h-.06l0,0a.25.25,0,0,0-.25,0,.15.15,0,0,0-.05.06.09.09,0,0,0,0,.07s.05.05.08.06l.1,0h0a.14.14,0,0,0,.09,0H24a.16.16,0,0,0,.11-.1.08.08,0,0,0,0,0A.13.13,0,0,0,24.07,73Z" class="cls-36"/><path data-cppathid="10199" d="M45.91,78.63h0l0,0a.28.28,0,0,0-.12,0l-.09,0-.05,0a.38.38,0,0,0-.38.07.2.2,0,0,0-.08.1.11.11,0,0,0,0,.1l.12.1.15,0h0a.2.2,0,0,0,.13,0h0l.21,0a.26.26,0,0,0,.17-.14.15.15,0,0,0,0-.09A.12.12,0,0,0,45.91,78.63Z" class="cls-36"/><path data-cppathid="10200" d="M16.42,72.55a.49.49,0,0,0-.39-.19.56.56,0,0,0-.34,0l-.14,0a.13.13,0,0,0-.08.17l0,.06a.08.08,0,0,0,0,0,.77.77,0,0,0,.28.12.69.69,0,0,0,.52-.1A.14.14,0,0,0,16.42,72.55Z" class="cls-36"/><path data-cppathid="10201" d="M20.07,71.92s0,0,0,0l-.09,0h-.09l0,0,0,0,0,0a.08.08,0,0,0,0,0,.14.14,0,0,0,0,.06h0l0,0,0,0h.07l0,0s0,0,0,0l0,0,0,0,0,0S20.08,71.93,20.07,71.92Z" class="cls-36"/></g></g></g></g></g></svg>