<?xml version="1.0" encoding="UTF-8"?>
<svg xmlns="http://www.w3.org/2000/svg" onmouseup="{ if(window.parent.document.onmouseup) window.parent.document.onmouseup(arguments[0]);}" viewBox="0 0 97.25 36.95"><defs><style>.cls-1{isolation:isolate;}.cls-2,.cls-4,.cls-6,.cls-8{fill:#d37370;}.cls-3{fill:#d2738d;opacity:0.51;}.cls-3,.cls-6{mix-blend-mode:multiply;}.cls-4,.cls-7,.cls-8{mix-blend-mode:screen;}.cls-4,.cls-7{opacity:0.47;}.cls-5{fill:#db7774;}</style></defs><g class="cls-1"><g data-name="Capa 2" id="Capa_2"><g data-name="Layer 1" id="Layer_1"><g data-name="Capa 22" id="Capa_22"><g data-name="Capa 55" id="Capa_55"><path data-cppathid="10000" d="M91.3,14.25c-2.13.19-4.27.34-6.41.49q-6.56.47-13.12.77c-8.7.4-17.43.57-26.14.42s-17.51-1.11-26.27-1.7c-2.26-.15-4.52-.25-6.78-.45-2-.17-4-.31-6-.35a23.64,23.64,0,0,0-6,.43L.23,14a2.06,2.06,0,0,0-.23.93,8.61,8.61,0,0,0,2,2.93C3,18.91,4.1,19.89,5.15,21s2.07,2.34,3.11,3.51,2.22,2.4,3.43,3.5a26.23,26.23,0,0,0,8.94,5.28A60.28,60.28,0,0,0,32.22,36a98.83,98.83,0,0,0,16.41.88A98.77,98.77,0,0,0,65,36a60.1,60.1,0,0,0,11.59-2.8A26.23,26.23,0,0,0,85.56,28,47.16,47.16,0,0,0,89,24.46c1-1.17,2-2.4,3.11-3.51s2.18-2,3.18-3.13a8.61,8.61,0,0,0,2-2.93,2.1,2.1,0,0,0-.15-.76A26.79,26.79,0,0,0,91.3,14.25Z" class="cls-2"/><path data-cppathid="10001" d="M91.3,14.25c-2.13.19-4.27.34-6.41.49q-6.56.47-13.12.77c-8.7.4-17.43.57-26.14.42s-17.51-1.11-26.27-1.7c-2.26-.15-4.52-.25-6.78-.45-2-.17-4-.31-6-.35a23.64,23.64,0,0,0-6,.43L.23,14a2.06,2.06,0,0,0-.23.93,8.61,8.61,0,0,0,2,2.93C3,18.91,4.1,19.89,5.15,21s2.07,2.34,3.11,3.51,2.22,2.4,3.43,3.5a26.23,26.23,0,0,0,8.94,5.28A60.28,60.28,0,0,0,32.22,36a98.83,98.83,0,0,0,16.41.88A98.77,98.77,0,0,0,65,36a60.1,60.1,0,0,0,11.59-2.8A26.23,26.23,0,0,0,85.56,28,47.16,47.16,0,0,0,89,24.46c1-1.17,2-2.4,3.11-3.51s2.18-2,3.18-3.13a8.61,8.61,0,0,0,2-2.93,2.1,2.1,0,0,0-.15-.76A26.79,26.79,0,0,0,91.3,14.25ZM60.44,23.71A11.94,11.94,0,0,1,60,26.43a8.08,8.08,0,0,1-2.5,4A9.75,9.75,0,0,1,53,32.37a45.56,45.56,0,0,1-7.19.67,122.33,122.33,0,0,1-15.54-.85c-4.66-.45-9.45-1.23-13.55-3.63a30.48,30.48,0,0,1-5.22-3.81,18.22,18.22,0,0,1-2.81-3.13c-1-.9-2.18-2.14-1.42-3.37s2.51-1.07,3.67-1c.63.05,1.25.13,1.87.18l3.82.3c5.44.43,10.88.89,16.33,1.25s10.91.53,16.38.68l4.1.11c1.2,0,2.41,0,3.6.17s2.58.53,3.1,1.77A4.4,4.4,0,0,1,60.44,23.71Z" class="cls-3"/><path data-cppathid="10002" d="M91.3,14.25c-2.13.19-4.27.34-6.41.49q-6.56.47-13.12.77c-8.7.4-17.43.57-26.14.42-3.41-.06-6.8-.24-10.19-.47l1.32.29a76,76,0,0,0,12.49,1.63A156,156,0,0,0,65,17.12c1.13-.06,2.25-.23,3.37-.38,1.45-.19,2.9-.37,4.36-.47a23.41,23.41,0,0,1,4.35,0,8,8,0,0,1,3.47,1.07,3.81,3.81,0,0,1,1.72,2.69,9.81,9.81,0,0,1-1.19,5.88,16.74,16.74,0,0,1-4.17,5,22.56,22.56,0,0,1-5.55,3.21c-1.29.56-2.6,1-3.94,1.47a58.81,58.81,0,0,0,9.21-2.41A26.23,26.23,0,0,0,85.56,28,47.16,47.16,0,0,0,89,24.46c1-1.17,2-2.4,3.11-3.51s2.18-2,3.18-3.13a8.61,8.61,0,0,0,2-2.93,2.1,2.1,0,0,0-.15-.76A26.79,26.79,0,0,0,91.3,14.25Z" class="cls-3"/><path data-cppathid="10003" d="M13.93,20.88a5.83,5.83,0,0,0-2.14-1.46,1.73,1.73,0,0,0-1.32,0,1.23,1.23,0,0,0-.73,1.11.68.68,0,0,1,0,.14,1.3,1.3,0,0,0,.15.68,3.76,3.76,0,0,0,.88,1.07,9.51,9.51,0,0,0,.92.76c.77.55,1.95,1.15,2.74.29S14.5,21.52,13.93,20.88Z" class="cls-4"/><path data-cppathid="10004" d="M17.72,25.63a.21.21,0,0,0,0-.13.52.52,0,0,0-.1-.11l0,0-.11-.05h0l-.13-.09-.09,0a.33.33,0,0,0-.17,0l-.13,0a.76.76,0,0,0-.18.09l-.1.09-.08.11a.33.33,0,0,0-.07.16.43.43,0,0,0,0,.16v0a.17.17,0,0,1,0,.05l0,.05v0a.32.32,0,0,0,.1.1l0,0h0l.07.15a.28.28,0,0,0,.14.1.31.31,0,0,0,.19,0l.19-.05a.59.59,0,0,0,.17-.1.49.49,0,0,0,.13-.12.64.64,0,0,0,.08-.14l0-.1s0,0,0,0l0,0A.39.39,0,0,0,17.72,25.63Z" class="cls-4"/><path data-cppathid="10005" d="M95.08,11.78C90.82,9,85.62,7.44,81,5.68,75.31,3.56,69,.57,63,.07a20.87,20.87,0,0,0-5.95.38A28.06,28.06,0,0,0,51.3,2.36c-.88.39-1.73.82-2.57,1.27-.84-.45-1.69-.88-2.57-1.27A28.06,28.06,0,0,0,40.37.45C34.5-.74,28.71,1.31,23.09,3.2c-6.1,2.06-12,4.63-18,7.21A14.46,14.46,0,0,0,2,12.05c-.19.15-2.6,2.41-1.48,2.59,19,3.09,32.68,3.08,45.78,3.09,31.47,0,48.3-2.72,50.93-3.15A4.21,4.21,0,0,0,95.08,11.78Z" class="cls-5"/><path data-cppathid="10006" d="M95.08,11.78C90.82,9,85.62,7.44,81,5.68,75.31,3.56,69,.57,63,.07a20.87,20.87,0,0,0-5.95.38A28.06,28.06,0,0,0,51.3,2.36c-.88.39-1.73.82-2.57,1.27-.84-.45-1.69-.88-2.57-1.27A28.06,28.06,0,0,0,40.37.45C34.5-.74,28.71,1.31,23.09,3.2c-6.1,2.06-12,4.63-18,7.21A14.46,14.46,0,0,0,2,12.05c-.19.15-2.6,2.41-1.48,2.59,19,3.09,32.68,3.08,45.78,3.09,31.47,0,48.3-2.72,50.93-3.15A4.21,4.21,0,0,0,95.08,11.78Z" class="cls-2"/><path data-cppathid="10007" d="M82.55,15.73c-7,.13-14,.4-21,.54s-14.05.19-21.08,0-14.1-.56-21.15-.86c-5.65-.25-11.31-.44-17-.48,18.08,2.8,31.29,2.79,44,2.8a387.57,387.57,0,0,0,42.88-2.06C87,15.71,84.74,15.68,82.55,15.73Z" class="cls-6"/><path data-cppathid="10008" d="M95.08,11.78C90.82,9,85.62,7.44,81,5.68,75.31,3.56,69,.57,63,.07a20.87,20.87,0,0,0-5.95.38A28.06,28.06,0,0,0,51.3,2.36c-.88.39-1.73.82-2.57,1.27-.84-.45-1.69-.88-2.57-1.27A28.06,28.06,0,0,0,40.37.45C34.5-.74,28.71,1.31,23.09,3.2c-6.1,2.06-12,4.63-18,7.21A14.46,14.46,0,0,0,2,12.05c-.19.15-2.6,2.41-1.48,2.59,19,3.09,32.68,3.08,45.78,3.09,31.47,0,48.3-2.72,50.93-3.15A4.21,4.21,0,0,0,95.08,11.78Zm-29.16-1c-1.29,3.4-16,3.93-17.07,3.79l-.92.05c-4.58.18-9.14-.28-13.72-.4s-9.37-.17-14-.48c-1.52-.1-3-.27-4.55-.37-1.14-.08-2.28-.18-3.41-.37a6,6,0,0,1-2.91-1,1.07,1.07,0,0,1-.41-1A1.92,1.92,0,0,1,9.72,10a16.13,16.13,0,0,1,3.49-1.77c1.46-.62,2.86-1.37,4.31-2A57.26,57.26,0,0,1,29.69,2.24a27.51,27.51,0,0,1,6.14-.6A20.6,20.6,0,0,1,42.12,3a60.62,60.62,0,0,1,6.33,2.33c.54.29,3.42-1.42,5.36-2a13.31,13.31,0,0,1,6.48-.4C63.58,3.61,67.3,7.15,65.92,10.79Z" class="cls-3"/><path data-cppathid="10009" d="M68.7,1.29c1.87.78,3.73,1.59,5.56,2.47a51.71,51.71,0,0,1,5.16,2.83A15.45,15.45,0,0,1,83,9.54a3.5,3.5,0,0,1,1,3c-.42,1.69-2.31,2.34-3.8,2.72a48.9,48.9,0,0,1-7.13,1c-3.85.4-7.71.61-11.56,1-.85.09-1.7.21-2.55.32,23.35-.57,36-2.63,38.27-3a4.21,4.21,0,0,0-2.15-2.8C90.82,9,85.62,7.44,81,5.68,76.79,4.11,72.28,2.08,67.79.92Z" class="cls-3"/><path data-cppathid="10010" d="M18.56,8.27A3.67,3.67,0,0,0,16.34,8a7,7,0,0,0-2.13.45,3.6,3.6,0,0,0-1.77,1.36c-.4.38-.59.9-.08,1.35a2.9,2.9,0,0,0,2,.49,8.86,8.86,0,0,0,2.55-.39A3.46,3.46,0,0,0,18.83,10,1.19,1.19,0,0,0,18.56,8.27Z" class="cls-4"/><g class="cls-7"><path data-cppathid="10011" d="M21.09,7.14s0,0,0,0a.17.17,0,0,0,0-.12A.24.24,0,0,0,21,6.85a1.57,1.57,0,0,0-.31-.08h-.1l-.11,0h-.08l-.16,0A.72.72,0,0,0,20,7a.82.82,0,0,0-.12.2.6.6,0,0,0,0,.35,1,1,0,0,0,.07.15l0,0,.08.08a.52.52,0,0,0,.5,0,1,1,0,0,0,.17-.1l.05,0,.15-.09L21,7.47l.06-.08,0-.09,0-.08A.24.24,0,0,0,21.09,7.14Z" class="cls-8"/><path data-cppathid="10012" d="M20.15,6.84h0Z" class="cls-2"/></g></g></g></g></g></g></svg>