<?xml version="1.0" encoding="UTF-8"?>
<svg xmlns="http://www.w3.org/2000/svg" onmouseup="{ if(window.parent.document.onmouseup) window.parent.document.onmouseup(arguments[0]);}" viewBox="0 0 67.93 75.54"><defs><style>.cls-1{opacity:0.3;}.cls-2{fill:#000072;}.cls-3{fill:#ed751b;}.cls-4{opacity:0.7;}.cls-5{fill:#fff;}.cls-6{fill:#9ca9b9;}.cls-7{fill:#6e7a84;}.cls-8{fill:#ccd4db;}.cls-9{fill:#ec8fff;}.cls-10{fill:#1bc91b;}</style></defs><g data-name="Capa 2" id="Capa_2"><g data-name="Layer 1" id="Layer_1"><g data-name="Capa 22" id="Capa_22"><g data-name="Capa 55" id="Capa_55"><g class="cls-1"><ellipse data-cppathid="10000" ry="1.66" rx="20.72" cy="73.88" cx="39.01" class="cls-2"/></g><path data-cppathid="10001" d="M12.11,34.86s-2.26.12-2.67,2-.26,4.06,1.33,4.53a27.34,27.34,0,0,0,6.33.95c4.8-.19,9.35-.78,12.55-3.41,0,0,1.41-2.57-13.57-3.84" class="cls-3"/><g class="cls-1"><path data-cppathid="10002" d="M29.65,38.92c-3.2,2.63-7.75,3.22-12.55,3.41a27.34,27.34,0,0,1-6.33-.95C9.18,40.91,9,38.72,9.44,36.85a2.41,2.41,0,0,1,.22-.59A2.45,2.45,0,0,0,11,38.83a27.9,27.9,0,0,0,6.22,1.49c4.59.2,9,0,12.33-2C29.78,38.67,29.65,38.92,29.65,38.92Z" class="cls-2"/></g><g class="cls-4"><path data-cppathid="10003" d="M29.65,38.92l-.37.29c-.92-.87-3.9-2.16-13.2-3l-4-.21s-2.26.11-2.67,2a9.87,9.87,0,0,0-.16,1.09,7.63,7.63,0,0,1,.16-2.27c.41-1.87,2.67-2,2.67-2l4,.22C31.06,36.35,29.65,38.92,29.65,38.92Z" class="cls-5"/></g><path data-cppathid="10004" d="M24.51,36.41a7.26,7.26,0,0,1-1.83,1.91,23.84,23.84,0,0,1-6.51.4,2.65,2.65,0,0,1-1.84-1,7.52,7.52,0,0,1-.89-1.35,1.79,1.79,0,0,0,1.06.24,28.41,28.41,0,0,0,9.2-.27Z" class="cls-5"/><path data-cppathid="10005" d="M33.94,72.67a3.11,3.11,0,0,1-3.17,0,1.42,1.42,0,0,1-.57-.93l-.67-4.31L29,64.31,29,63.76l4.56,1.68Z" class="cls-6"/><path data-cppathid="10006" d="M29.85,70.27s2.51.77,3.75.2v2s-2.39,1.39-3.32-.42" class="cls-7"/><path data-cppathid="10007" d="M54.54,58.75A15.87,15.87,0,0,1,52.43,64a6.36,6.36,0,0,0-.93,2.32,39.28,39.28,0,0,0,0,5.08,2,2,0,0,1-1.93,2.09,5.76,5.76,0,0,1-1.17-.12,1.23,1.23,0,0,1-.93-1.07l-.7-7a30.67,30.67,0,0,1-7.66.54H39l-.09,6.59a1.18,1.18,0,0,1-.79,1.1,4.59,4.59,0,0,1-3.59-.12h0a1.18,1.18,0,0,1-.66-1l-.5-6.89c-6-1.56-9.57-5.16-9.23-12.11,0,0,.08-2.74.18-5.46.05-1.27.1-2.54.15-3.53,0-.21,0-.41,0-.59,0,0-6.35,1.52-7.52-1.56a32.29,32.29,0,0,0,11.6-2.26c1-.59,1.54-1.29.5-2.37h0a13,13,0,0,0-4.56-1.35l0,.06-.81-.06a28.41,28.41,0,0,1-9.2.27,1.79,1.79,0,0,1-1.06-.24h0a4.42,4.42,0,0,1-1.34-1.52,5.08,5.08,0,0,1-.51-1.43,6.24,6.24,0,0,1,.26-3.31h0a5.33,5.33,0,0,1,2-2.68h0c.42-5.56,2-9.91,5.88-12,0,0-.12-2,3.27-2.33L21.86,12a24,24,0,0,1,6.31.26l-.33-1.72c2.83,1.38,4.79,3.13,5.38,5.49,0,0,1.68-9.52,7.57-13a1.36,1.36,0,0,1,2,.94c.5,3,.48,9.81-6.76,18.16,0,0,1.1,3.68,2,6.31s.71,6.54-2.74,10.81a5,5,0,0,0,2.74,6.36c4.39,2,10.4-.56,13.79,3a10.41,10.41,0,0,1,2.33,3.68A11.82,11.82,0,0,1,54.54,58.75Z" class="cls-6"/><g class="cls-4"><path data-cppathid="10008" d="M13.81,28.59h0a5.33,5.33,0,0,0-2,2.68h0a6.35,6.35,0,0,0-.29,1.14,6.5,6.5,0,0,1,.37-2.31h0a5.33,5.33,0,0,1,2-2.68h0c.42-5.56,2-9.91,5.88-12,0,0-.09-1.5,2.12-2.12l1.07,1c-3.39.35-3.26,2.33-3.26,2.33C15.84,18.68,14.22,23,13.81,28.59Z" class="cls-5"/></g><g class="cls-4"><path data-cppathid="10009" d="M23,13.05,21.86,12a24.67,24.67,0,0,1,6,.19l.23,1.24a21.16,21.16,0,0,0-5.55-.32C22.69,13.09,22.86,13.06,23,13.05Z" class="cls-5"/></g><g class="cls-4"><path data-cppathid="10010" d="M33.14,17.19c-.56-2.25-2.4-4-5.05-5.32l-.25-1.33c2.83,1.38,4.79,3.13,5.38,5.49,0,0,1.68-9.52,7.57-13a1.36,1.36,0,0,1,2,.94,15.33,15.33,0,0,1,.1,4,15.35,15.35,0,0,0-.18-2.85,1.36,1.36,0,0,0-2-.94C34.83,7.68,33.14,17.19,33.14,17.19Z" class="cls-5"/></g><g class="cls-4"><path data-cppathid="10011" d="M54.76,57.3a10.1,10.1,0,0,0-2.93-7.56c-3.38-3.55-9.4-1-13.79-3a4.77,4.77,0,0,1-3-5.45,4.65,4.65,0,0,0,3,4.28c4.39,2,10.4-.56,13.79,3A10.3,10.3,0,0,1,54.76,57.3Z" class="cls-5"/></g><g class="cls-4"><path data-cppathid="10012" d="M21.88,13.26l-.1-.1.76-.05A5.38,5.38,0,0,0,21.88,13.26Z" class="cls-5"/></g><g class="cls-4"><path data-cppathid="10013" d="M27.86,12.19l-.09-.49.32.17.08.39Z" class="cls-5"/></g><path data-cppathid="10014" d="M33.75,70.47s3,1.37,5.11.17v2.24c-1.8,1.24-3.47,1.44-4.91-.13Z" class="cls-7"/><path data-cppathid="10015" d="M47.32,70.62a6,6,0,0,0,4.14-.68v1.64s-.27,1.93-2.07,1.75-1.89-.94-1.94-1.42Z" class="cls-7"/><path data-cppathid="10016" d="M47.69,72.64a3.11,3.11,0,0,1-2.88.19A1.06,1.06,0,0,1,44.2,72l-.76-6.11,3.88-.53" class="cls-6"/><path data-cppathid="10017" d="M44.16,70.9a4.43,4.43,0,0,0,3-.22l.35,2.06s-2.57.94-3.09-.67" class="cls-7"/><path data-cppathid="10018" d="M54.85,56.35c1.71,3,4,4.32,7.51,2.88a.4.4,0,0,1,.53.49c-1.13,3.16-6.76,3.63-8.94,1.14" class="cls-6"/><g class="cls-1"><path data-cppathid="10019" d="M62.89,59.72c-1.13,3.16-6.76,3.63-8.94,1.14l.9-4.51,0,0-.58,2.88c1.91,2.18,6.45,2.1,8.31-.07A.39.39,0,0,1,62.89,59.72Z" class="cls-2"/></g><g class="cls-4"><path data-cppathid="10020" d="M62.89,59.72a3.7,3.7,0,0,1-.29.6.39.39,0,0,0-.55-.33c-3.38,1.41-5.69.14-7.39-2.67l.19-1c1.71,3,4,4.32,7.51,2.88A.4.4,0,0,1,62.89,59.72Z" class="cls-5"/></g><path data-cppathid="10021" d="M38.89,61.86A31.9,31.9,0,0,0,45,61.28l1.28,2.39.31,1.5-7.46.35Z" class="cls-8"/><path data-cppathid="10022" d="M29.1,37.7h0a15.06,15.06,0,0,0-4.59-1.29l-.81-.06a28.41,28.41,0,0,1-9.2.27,1.79,1.79,0,0,1-1.06-.24,3.36,3.36,0,0,1-1.34-1.53,7.54,7.54,0,0,1-.51-1.43h0a5.09,5.09,0,0,1,.26-3.3h0a7.22,7.22,0,0,1,2-2.68h0s5.18-3,10.67,1.94c0,0,4.37-.19,5.38,3.63C29.93,33,30.77,36.14,29.1,37.7Z" class="cls-8"/><path data-cppathid="10023" d="M33.6,65.58a13.8,13.8,0,0,1-5.16-2.17,7.54,7.54,0,0,1-2.08-2.2A14.07,14.07,0,0,1,24.31,53c0-.22,0-.47,0-.75,0-2.7.24-7.89.24-7.89l.51-.73s2-1.53,3.22-.5-1,7.59.66,12.27,4.15,5.18,4.15,5.18Z" class="cls-8"/><path data-cppathid="10024" d="M36.43,74.38a4.82,4.82,0,0,1-2.1-.48,1.68,1.68,0,0,1-.93-1.39L32.92,66A13.25,13.25,0,0,1,26,61.86a11.91,11.91,0,0,1-2.34-8.41c0-.06.17-5.84.31-8.94-1.73.31-6.37.85-7.45-2a.48.48,0,0,1,.06-.46.5.5,0,0,1,.4-.22,32,32,0,0,0,11.39-2.21c.48-.3.74-.56.77-.79a1,1,0,0,0-.36-.73,12.94,12.94,0,0,0-4-1.22A7.45,7.45,0,0,1,23,38.75a.49.49,0,0,1-.17.06,24.23,24.23,0,0,1-6.65.41,3.21,3.21,0,0,1-2.19-1.17,8.73,8.73,0,0,1-.9-1.34A5.46,5.46,0,0,1,11,32.13a6.33,6.33,0,0,1,2.42-5c.5-6.07,2.43-10,5.89-12.06.09-.6.54-1.84,2.63-2.35l-.4-.36a.52.52,0,0,1-.14-.53.51.51,0,0,1,.43-.34,26.11,26.11,0,0,1,5.73.12l-.19-1a.5.5,0,0,1,.19-.49.47.47,0,0,1,.52-.05,10.91,10.91,0,0,1,5,4.25c.76-2.92,2.86-9,7.44-11.77a1.86,1.86,0,0,1,2.79,1.29c.55,3.31.4,10.06-6.69,18.36.27.88,1.17,3.84,2,6,.58,1.62,1.47,5.94-2.77,11.22a4.45,4.45,0,0,0,2.5,5.67,15.26,15.26,0,0,0,6,.85c2.9,0,5.89.06,8,2.25C55,51.07,55.88,54.54,55,58.85a16.4,16.4,0,0,1-2.17,5.42A5.69,5.69,0,0,0,52,66.39a34.89,34.89,0,0,0,0,5A2.48,2.48,0,0,1,49.6,74a4.63,4.63,0,0,1-1.3-.13,1.7,1.7,0,0,1-1.3-1.5l-.65-6.41a31.8,31.8,0,0,1-6.83.47l-.08,6.07A1.68,1.68,0,0,1,38.32,74,5.64,5.64,0,0,1,36.43,74.38Zm-11.91-31a.51.51,0,0,1,.32.12.49.49,0,0,1,.17.41c-.15,2.84-.34,9.5-.35,9.56-.3,6.19,2.59,10,8.86,11.62a.48.48,0,0,1,.37.45l.5,6.89a.68.68,0,0,0,.38.56,4.07,4.07,0,0,0,3.22.1.7.7,0,0,0,.45-.63l.09-6.59a.48.48,0,0,1,.16-.36.55.55,0,0,1,.37-.14,30.28,30.28,0,0,0,7.63-.52.48.48,0,0,1,.4.09.52.52,0,0,1,.2.35l.7,7a.73.73,0,0,0,.54.63,4,4,0,0,0,1,.11,1.54,1.54,0,0,0,1.06-.48A1.49,1.49,0,0,0,51,71.43a37,37,0,0,1,0-5.17,6.57,6.57,0,0,1,1-2.52,15.31,15.31,0,0,0,2-5.09c.8-4,0-7.11-2.5-9.73C49.75,47,47.09,47,44.28,47A15.9,15.9,0,0,1,37.91,46c-4.76-2.16-3-6.95-3-7A.64.64,0,0,1,35,38.9C39,34,38.17,30,37.64,28.58c-.93-2.61-2-6.3-2-6.34a.48.48,0,0,1,.1-.47c7-8.08,7.16-14.59,6.63-17.75a.82.82,0,0,0-.48-.63.84.84,0,0,0-.81,0C35.43,6.78,33.73,16,33.71,16.11a.5.5,0,0,1-.47.42.52.52,0,0,1-.51-.38c-.45-1.82-1.83-3.36-4.21-4.69l.14.71a.51.51,0,0,1-.15.45.49.49,0,0,1-.46.12,20.09,20.09,0,0,0-5-.32l.28.26a.48.48,0,0,1,.14.52.5.5,0,0,1-.42.34c-2.83.3-2.82,1.76-2.82,1.82a.47.47,0,0,1-.25.46c-3.34,1.84-5.18,5.65-5.63,11.63a.47.47,0,0,1-.22.38A5.35,5.35,0,0,0,12,32.15,4.45,4.45,0,0,0,13.73,36a.44.44,0,0,1,.15.18,6.93,6.93,0,0,0,.84,1.27,2.18,2.18,0,0,0,1.5.8,23,23,0,0,0,6.28-.37,7.67,7.67,0,0,0,1.63-1.77.49.49,0,0,1,.46-.22,13.47,13.47,0,0,1,4.75,1.4.34.34,0,0,1,.12.09,2,2,0,0,1,.69,1.6,2.38,2.38,0,0,1-1.29,1.55l-.07,0a33.3,33.3,0,0,1-10.9,2.27c1.4,1.4,5.05.94,6.51.59Z" class="cls-2"/><path data-cppathid="10025" d="M19.83,14.89l1.81.34h.05a.36.36,0,0,1,.29.43.09.09,0,0,1,0,.05l-.78,2.38-.36-.27A17.85,17.85,0,0,1,22.72,17a8.73,8.73,0,0,1,2-.49,7.92,7.92,0,0,0-1.9.72,14.54,14.54,0,0,0-1.74,1,.25.25,0,0,1-.33-.06.24.24,0,0,1,0-.18v0l.5-2.46.32.48-1.84-.12a.5.5,0,0,1,.07-1Z" class="cls-2"/><path data-cppathid="10026" d="M33.72,16l-.56,2-.44-2a.51.51,0,0,1,.39-.61.53.53,0,0,1,.62.39A.69.69,0,0,1,33.72,16Z" class="cls-2"/><path data-cppathid="10027" d="M35.68,22.41l-.91-2,1.7,1.39a.51.51,0,1,1-.65.79A.49.49,0,0,1,35.68,22.41Z" class="cls-2"/><path data-cppathid="10028" d="M20.36,13.39c0,.28-.09.55-.14.83L17.6,17c-2.85-4.83-3.91-9.61-2.36-14.29.16-.48.34-1,.55-1.43a1.36,1.36,0,0,1,2.47,0A22,22,0,0,1,20.36,13.39Z" class="cls-6"/><g class="cls-4"><path data-cppathid="10029" d="M20.22,14.22l-.07.08-.56-.37A21.93,21.93,0,0,0,17.5,1.77,1.33,1.33,0,0,0,16,1a1.36,1.36,0,0,1,2.31.23A21.64,21.64,0,0,1,20.22,14.22Z" class="cls-5"/></g><path data-cppathid="10030" d="M17.6,17.53a.49.49,0,0,1-.43-.24C13.7,11.4,13.1,6.1,15.34,1.1A1.85,1.85,0,0,1,17,0h0a1.82,1.82,0,0,1,1.67,1.06,22.2,22.2,0,0,1,2,13.26.48.48,0,0,1-.58.39.5.5,0,0,1-.4-.58A21.29,21.29,0,0,0,17.81,1.49.83.83,0,0,0,17,1h0a.83.83,0,0,0-.78.51C14.15,6.2,14.74,11.19,18,16.78a.49.49,0,0,1-.18.68A.45.45,0,0,1,17.6,17.53Z" class="cls-2"/><g class="cls-4"><path data-cppathid="10031" d="M41.09,6c-3.28,2.79-4.79,7.32-5.37,12.76C38.66,14.79,40.88,10.64,41.09,6Z" class="cls-5"/></g><path data-cppathid="10032" d="M40.52,5.28C37.24,8.07,35.72,12.6,35.15,18,38.08,14.06,40.3,9.91,40.52,5.28Z" class="cls-9"/><path data-cppathid="10033" d="M16.92,3.08c1.46,2.94,1.74,6.36,1.52,10A14.87,14.87,0,0,1,16.92,3.08Z" class="cls-9"/><path data-cppathid="10034" d="M35.15,18.45a.42.42,0,0,1-.41-.45c.65-6.17,2.46-10.43,5.52-13a.4.4,0,0,1,.67.33c-.2,4.14-1.88,8.14-5.45,13A.42.42,0,0,1,35.15,18.45ZM40,6.3c-2.19,2.25-3.6,5.6-4.27,10.18C38.32,12.76,39.67,9.53,40,6.3Z" class="cls-2"/><path data-cppathid="10035" d="M18.44,13.46a.42.42,0,0,1-.36-.22A15.33,15.33,0,0,1,16.52,3a.41.41,0,0,1,.77-.1c1.32,2.68,1.82,5.91,1.56,10.17a.41.41,0,0,1-.32.38ZM17.12,4.59a14.27,14.27,0,0,0,1,6.73A18.83,18.83,0,0,0,17.12,4.59Z" class="cls-2"/><path data-cppathid="10036" d="M18.77,37.53a21.84,21.84,0,0,1-5.46-.67.5.5,0,0,1,.25-1,23,23,0,0,0,10.87,0,.5.5,0,0,1,.6.37.5.5,0,0,1-.37.6A26.54,26.54,0,0,1,18.77,37.53Z" class="cls-2"/><path data-cppathid="10037" d="M24.26,35.9a.71.71,0,0,0,.16,0l.17-.07.34-.17a3.32,3.32,0,0,0,.62-.44,2.53,2.53,0,0,0,.48-.6,2.19,2.19,0,0,0,.26-.77,2.7,2.7,0,0,1,0,.85,3.13,3.13,0,0,1-.33.83,4.59,4.59,0,0,1-.54.71c-.11.11-.21.22-.33.32l-.17.15a1.91,1.91,0,0,1-.21.14l-.05,0a.52.52,0,0,1-.71-.16.51.51,0,0,1,.16-.7A.53.53,0,0,1,24.26,35.9Z" class="cls-2"/><ellipse data-cppathid="10038" transform="translate(-18.28 40.1) rotate(-80.12)" ry="0.39" rx="0.56" cy="30.92" cx="14.7" class="cls-2"/><ellipse data-cppathid="10039" transform="translate(-15.31 43.4) rotate(-80.12)" ry="0.39" rx="0.56" cy="30.81" cx="18.15" class="cls-2"/><rect data-cppathid="10040" height="1.42" width="0.7" y="37.04" x="15.73" class="cls-2"/><rect data-cppathid="10041" transform="translate(-2.62 1.36) rotate(-4.02)" height="1.25" width="0.7" y="37.31" x="17.69" class="cls-2"/><rect data-cppathid="10042" transform="translate(-4.12 2.55) rotate(-6.45)" height="1.04" width="0.7" y="37.31" x="20.26" class="cls-2"/><path data-cppathid="10043" d="M35.66,39.63l-2.11.79,1.56-1.62a.51.51,0,0,1,.72,0,.53.53,0,0,1,0,.73A.5.5,0,0,1,35.66,39.63Z" class="cls-2"/><path data-cppathid="10044" d="M24.62,44.38h-.18A.48.48,0,0,1,24,44a.45.45,0,0,1,.08-.36l0,0s0,0,0,0l0,0,0,0h0l.05,0,0,0h.06l.09,0,.17,0,.34-.08.68-.17L27,42.76l-1.16.79-.57.39-.28.2-.14.1-.07,0a0,0,0,0,0,0,0h0l0,0,.05,0,0,0,0,0a.45.45,0,0,0,.08-.36.48.48,0,0,0-.41-.41h-.18a.49.49,0,0,1,.59.38A.5.5,0,0,1,24.62,44.38Z" class="cls-2"/><ellipse data-cppathid="10045" ry="2.56" rx="1.81" cy="24.66" cx="17.53" class="cls-2"/><ellipse data-cppathid="10046" ry="3" rx="2.12" cy="25.1" cx="28.32" class="cls-2"/><path data-cppathid="10047" d="M18,22.52a2.05,2.05,0,0,1,.89,1.5.13.13,0,0,1-.15.14c-.87-.12-1.19-.64-.94-1.56A.13.13,0,0,1,18,22.52Z" class="cls-5"/><path data-cppathid="10048" d="M29.57,23.3a2.41,2.41,0,0,1,.51,1.55A.82.82,0,1,1,29.57,23.3Z" class="cls-5"/><path data-cppathid="10049" d="M33.16,61l.73,4.61a.5.5,0,1,1-1,.15.34.34,0,0,1,0-.1Z" class="cls-2"/><path data-cppathid="10050" d="M38.53,65.9l.33-5,.67,4.92a.5.5,0,0,1-.43.56.49.49,0,0,1-.56-.43A.34.34,0,0,1,38.53,65.9Z" class="cls-2"/><path data-cppathid="10051" d="M45.19,57.06a5.72,5.72,0,0,0-.33,1.78,5.94,5.94,0,0,0,.2,1.78,5.07,5.07,0,0,0,.28.83c0,.14.12.27.18.4s.14.26.22.39a7.1,7.1,0,0,0,1.06,1.39.33.33,0,0,1,.07.13l0,.05.39,1.43a.51.51,0,0,1-.35.62.52.52,0,0,1-.62-.35s0,0,0-.06L46.07,64l.09.19a8.86,8.86,0,0,1-1-1.65c-.07-.14-.12-.29-.18-.44s-.11-.3-.15-.45a6.7,6.7,0,0,1-.2-2.81A5.71,5.71,0,0,1,45.19,57.06Z" class="cls-2"/><path data-cppathid="10052" d="M32.16,73.6a2.88,2.88,0,0,1-1.67-.5,1.88,1.88,0,0,1-.78-1.27l-1.25-8a.5.5,0,1,1,1-.15l1.25,8a.91.91,0,0,0,.37.6,2.65,2.65,0,0,0,2.68-.07.5.5,0,1,1,.4.92A4.93,4.93,0,0,1,32.16,73.6Z" class="cls-2"/><path data-cppathid="10053" d="M46,73.6a3.24,3.24,0,0,1-1.39-.31,1.57,1.57,0,0,1-.91-1.23L43,65.94l1-.12.75,6.11a.58.58,0,0,0,.33.45,2.67,2.67,0,0,0,2.44-.18l.46.89A4.18,4.18,0,0,1,46,73.6Z" class="cls-2"/><path data-cppathid="10054" d="M58,63a6,6,0,0,1-4.46-1.76.51.51,0,0,1,0-.71.51.51,0,0,1,.71.05,5.36,5.36,0,0,0,4.92,1.31,4,4,0,0,0,3.07-2.06C59,61.06,56.38,60,54.41,56.6a.5.5,0,0,1,.87-.5c1.77,3,4,3.89,6.89,2.67a.87.87,0,0,1,1,.17.89.89,0,0,1,.23,1,4.86,4.86,0,0,1-3.92,2.93A7.45,7.45,0,0,1,58,63Z" class="cls-2"/><path data-cppathid="10055" d="M62.66,59.4q-2.69-2.09,0-6.81l.82,1.93s-.32-4.15,3.18-5.14a7.9,7.9,0,0,0,.41,5C68.21,57,66.57,61,62.66,59.4Z" class="cls-7"/><g class="cls-1"><path data-cppathid="10056" d="M62.66,59.4a3.28,3.28,0,0,1-1.34-2.57,2.48,2.48,0,0,0,.3.25c3.49,1.41,5.17-1.63,4.68-4.13l.29-.07a7.3,7.3,0,0,0,.48,1.51C68.21,57,66.57,61,62.66,59.4Z" class="cls-2"/></g><g class="cls-4"><path data-cppathid="10057" d="M63.16,53.77q-1.89,3.51-.65,5.51-2.46-2.1.15-6.69Z" class="cls-5"/></g><g class="cls-4"><path data-cppathid="10058" d="M66.66,49.38a7.13,7.13,0,0,0-.2,1.17c-2.54,1.38-2.28,4.78-2.28,4.78l-.69-1.62A4.6,4.6,0,0,1,66.66,49.38Z" class="cls-5"/></g><g class="cls-4"><path data-cppathid="10059" d="M63.48,54.52l-.32-.75.2-.37.13.31A5.12,5.12,0,0,0,63.48,54.52Z" class="cls-5"/></g><path data-cppathid="10060" d="M9.44,36.85a13.41,13.41,0,0,0-7.53-2.42.58.58,0,0,0-.46,1c1.21,1.39,3.3,2.14,6.12,2.35,0,0-4.43,0-6.76,1.25A.58.58,0,0,0,1,40.09a11,11,0,0,0,5.77-.6,13.81,13.81,0,0,0-3.87,2.94.58.58,0,0,0,.67.91,10.56,10.56,0,0,0,3.86-2.53,7.37,7.37,0,0,0-1.95,3.65.59.59,0,0,0,.9.58,7.37,7.37,0,0,0,3.27-4.62" class="cls-10"/><g class="cls-4"><path data-cppathid="10061" d="M4.34,38c1,.33,2.58,0,3.86.13-.09,0-4.94.51-7.25,1.76A.58.58,0,0,0,.78,40a.59.59,0,0,1,0-1A11.34,11.34,0,0,1,4.34,38Z" class="cls-5"/></g><g class="cls-4"><path data-cppathid="10062" d="M7.36,39.65A24.22,24.22,0,0,0,3,43.3H3a.58.58,0,0,1-.14-.88A9.83,9.83,0,0,1,4.37,41,19.51,19.51,0,0,0,7.36,39.65Z" class="cls-5"/></g><g class="cls-4"><path data-cppathid="10063" d="M1.45,35.4a.58.58,0,0,1,.46-1,13.41,13.41,0,0,1,7.53,2.42l.05.8A13.78,13.78,0,0,0,2.05,35.3a.57.57,0,0,0-.48.23Z" class="cls-5"/></g><path data-cppathid="10064" d="M64.33,60.26a5.08,5.08,0,0,1-1.86-.39l-.12-.07c-2-1.57-2.05-4.08-.12-7.45a.49.49,0,0,1,.89,0l.06.13a4.79,4.79,0,0,1,3.34-3.63A.51.51,0,0,1,67,49a.49.49,0,0,1,.12.49,7.44,7.44,0,0,0,.39,4.67,4.76,4.76,0,0,1-.77,5.06A3.29,3.29,0,0,1,64.33,60.26ZM62.91,59A2.71,2.71,0,0,0,66,58.55a3.75,3.75,0,0,0,.57-4,8.31,8.31,0,0,1-.61-4.4c-2.22,1.21-2,4.16-2,4.29a.52.52,0,0,1-.39.53.51.51,0,0,1-.57-.29l-.41-1C61.46,56.16,61.56,57.87,62.91,59Z" class="cls-2"/><path data-cppathid="10065" d="M17.1,42.83h0a28.09,28.09,0,0,1-6.46-1c-1.93-.57-2.13-3-1.67-5.12s3-2.37,3.12-2.38a.5.5,0,0,1,.52.48.49.49,0,0,1-.47.52c-.08,0-1.88.13-2.2,1.6s-.29,3.56,1,3.94a26.82,26.82,0,0,0,6.18.93.5.5,0,0,1,0,1Z" class="cls-2"/><path data-cppathid="10066" d="M13.17,39.22c.07.44.16.88.26,1.3.05.22.11.43.17.63a3.38,3.38,0,0,0,.23.57l-.78.25a4.64,4.64,0,0,1-.05-.73c0-.23,0-.46,0-.68C13.06,40.1,13.11,39.66,13.17,39.22Z" class="cls-2"/><path data-cppathid="10067" d="M25.62,36.72l-.12.51-.12.52a9.17,9.17,0,0,0-.16,1A9.09,9.09,0,0,1,25,37.74l-.09-.53c0-.18-.05-.36-.07-.54Z" class="cls-2"/><path data-cppathid="10068" d="M27.32,38.8a6.44,6.44,0,0,1,.29.81,2.85,2.85,0,0,1,.09.44,2.06,2.06,0,0,1,0,.5l-.78-.25a1.49,1.49,0,0,0,.16-.31,3.25,3.25,0,0,0,.11-.37A5.4,5.4,0,0,0,27.32,38.8Z" class="cls-2"/><polygon data-cppathid="10069" points="19.69 38.87 19.43 40.06 18.88 38.98 19.69 38.87" class="cls-2"/><path data-cppathid="10070" d="M6.05,45.63A1.07,1.07,0,0,1,5,44.39,5.79,5.79,0,0,1,5.36,43a17.81,17.81,0,0,1-1.61.78,1.08,1.08,0,0,1-1.29-.37,1.07,1.07,0,0,1,0-1.33A10.7,10.7,0,0,1,4,40.67a11.76,11.76,0,0,1-3.09-.08A1.08,1.08,0,0,1,0,39.7a1.07,1.07,0,0,1,.55-1.14,11,11,0,0,1,3.36-1,6.66,6.66,0,0,1-2.85-1.82,1.09,1.09,0,0,1-.17-1.19,1.06,1.06,0,0,1,1-.61,13.88,13.88,0,0,1,7.84,2.53.5.5,0,0,1-.63.78,13.11,13.11,0,0,0-7.24-2.31s0,0-.08,0a.09.09,0,0,0,0,.1c1.08,1.24,3,2,5.78,2.18a.5.5,0,0,1,.46.52.5.5,0,0,1-.5.48h0c-.06,0-4.34,0-6.53,1.19a.09.09,0,0,0,0,.09c0,.06.05.07.07.07A10.54,10.54,0,0,0,6.57,39a.5.5,0,0,1,.41.91,13.23,13.23,0,0,0-3.71,2.81s0,0,0,.1a.07.07,0,0,0,.1,0,11,11,0,0,0,3.41-2.11c.16-.19.27-.3.29-.32a.51.51,0,0,1,.69,0,.5.5,0,0,1,0,.69l-.27.29A6.58,6.58,0,0,0,6,44.54s0,.05,0,.08a.09.09,0,0,0,.1,0,6.9,6.9,0,0,0,3.05-4.29.5.5,0,0,1,.59-.4.51.51,0,0,1,.39.59,7.86,7.86,0,0,1-3.48,4.93A1.08,1.08,0,0,1,6.05,45.63Z" class="cls-2"/><g class="cls-1"><path data-cppathid="10071" d="M20.36,13.39c0,.28-.09.55-.14.83L17.6,17c-2.85-4.83-3.91-9.61-2.36-14.29-.05,1.66-.12,11.18,4.68,10.69Z" class="cls-2"/></g><g class="cls-1"><path data-cppathid="10072" d="M12.66,28.58c-1.58,7.46,7.89,6.69,13.1,3.84,0,0,2.64,1,1.41,4.28l-2.32-.56a24.55,24.55,0,0,1-7.55.7c-3.1-.43-3.88-.37-4.82-1.54s-.82-3.71-.82-3.71" class="cls-2"/></g><g class="cls-1"><path data-cppathid="10073" d="M35.15,20.9l-1-1.08s4.31,14-2.68,19.67c0,0,3.89,1.87,5.87-3.23s.82-8.63,0-10.2a25.21,25.21,0,0,1-1.5-3.78" class="cls-2"/></g><g class="cls-1"><path data-cppathid="10074" d="M24.34,48c.05-1.27.1-2.54.15-3.53l1.71-1.15,2-1.48S28.25,46.3,24.34,48Z" class="cls-2"/></g><g class="cls-1"><path data-cppathid="10075" d="M45.57,62.74s-4,1-6.63.52l.33,2.62s6.78,0,7.23-.67-.33-1.45-.33-1.45" class="cls-2"/></g><g class="cls-1"><path data-cppathid="10076" d="M33.16,63.26v2.09l-4.72-1.94a7.54,7.54,0,0,1-2.08-2.2A14.07,14.07,0,0,1,24.31,53c0-.22,0-.47,0-.75C25.74,58.5,28.93,61.78,33.16,63.26Z" class="cls-2"/></g><g class="cls-1"><path data-cppathid="10077" d="M33.16,67.43c-1,.72-2.55.39-3.63,0L29,64.31l3.8,1.21Z" class="cls-2"/></g><g class="cls-1"><path data-cppathid="10078" d="M47,67.16a9.81,9.81,0,0,1-3.26.94l-.27-2,3.16-.47" class="cls-2"/></g><g class="cls-1"><path data-cppathid="10079" d="M54.54,58.75A15.87,15.87,0,0,1,52.43,64a6.36,6.36,0,0,0-.93,2.32,39.28,39.28,0,0,0,0,5.08,2,2,0,0,1-1.93,2.09,3.85,3.85,0,0,1-.48,0c1.28-1.62.92-5,.56-7a1.57,1.57,0,0,0,0-.23A6.07,6.07,0,0,1,51,61.54c2.72-3.38,3.27-9.15,3.28-9.29A11.82,11.82,0,0,1,54.54,58.75Z" class="cls-2"/></g><g class="cls-1"><path data-cppathid="10080" d="M39.13,65.89H39l-.09,6.59a1.18,1.18,0,0,1-.79,1.1,4.59,4.59,0,0,1-3.59-.12c3.61-.47,2.85-5.71,2.6-8.59a10,10,0,0,1,1.43-5.64l.3,3.23Z" class="cls-2"/></g></g></g></g></g></svg>