<?xml version="1.0" encoding="UTF-8"?>
<svg xmlns="http://www.w3.org/2000/svg" onmouseup="{ if(window.parent.document.onmouseup) window.parent.document.onmouseup(arguments[0]);}" viewBox="0 0 85.78 80.48"><defs><style>.cls-1{fill:#85cef7;}.cls-2{opacity:0.3;}.cls-3{fill:#000072;}.cls-4{fill:#33aef2;}.cls-5{opacity:0.35;}.cls-6{opacity:0.4;}.cls-7{fill:#fff;}.cls-8{fill:#28b9e5;}</style></defs><g data-name="Capa 2" id="Capa_2"><g data-name="Layer 1" id="Layer_1"><g data-name="Capa 22" id="Capa_22"><g data-name="Capa 55" id="Capa_55"><path data-cppathid="10000" d="M45,13.61a8.46,8.46,0,0,1-2.94.94c-3.08.4-5.83,1.28-7.77,3.58-2.47,2.93-2.43,12.39-2.43,12.39H29.55s-2.79-16.44-9.32-16.26c-4.16.12-6.26,3.45-8.43,2.56a2,2,0,0,1-1-1.73c-.36-3.32,2.56-10,8.78-9.75a8.36,8.36,0,0,1,6.91,4.08.59.59,0,0,0,1.09-.33c-.06-3.34.31-8.2,3-8.54s2.68,6.84,2.59,10a.59.59,0,0,0,1,.46C36.43,9,41.88,4.85,46,7.71,48.84,9.74,47.52,12.25,45,13.61Z" class="cls-1"/><g class="cls-2"><path data-cppathid="10001" d="M45,13.61a8.46,8.46,0,0,1-2.94.94c-3.08.4-5.83,1.28-7.77,3.58-2.47,2.93-2.43,12.39-2.43,12.39H29.55s-2.79-16.44-9.32-16.26c-4.16.12-6.26,3.45-8.43,2.56a2,2,0,0,1-1-1.73,1,1,0,0,0,.84.78c1.34.08,3.64-4.79,9.93-3.79s6.32,9.44,8.41,9.67S31.2,17.23,35.76,15A14.45,14.45,0,0,1,45,13.61Z" class="cls-3"/></g><path data-cppathid="10002" d="M29.55,31.06a.53.53,0,0,1-.53-.45,52,52,0,0,0-2.19-8.11c-1.32-3.56-3.53-7.78-6.58-7.7a10.08,10.08,0,0,0-4.77,1.62c-1.38.77-2.57,1.43-3.88.9S10,15,10.48,12.71c.86-4,4.09-8.12,9.16-7.91A8.89,8.89,0,0,1,27,9.13s0,0,.05,0,0,0,0-.05C27,5.17,27.55.4,30.53,0A1.77,1.77,0,0,1,32,.49C33.62,2,33.84,6.78,33.73,10.56a0,0,0,0,0,0,0s0,0,.05,0c2.28-2,8-6.42,12.45-3.33,2,1.41,2,2.93,1.78,3.71-.49,2-3,3.73-5.95,4.11-3.54.45-5.83,1.5-7.43,3.39-2.31,2.74-2.3,12-2.3,12a.54.54,0,0,1-.54.54h0a.54.54,0,0,1-.54-.53c0-.4,0-9.7,2.56-12.74C35.62,15.67,38.12,14.51,42,14c2.45-.32,4.66-1.77,5-3.3.23-.91-.23-1.77-1.35-2.56-3.77-2.66-9,1.38-11.11,3.24a1.13,1.13,0,0,1-1.88-.87c.14-4.88-.38-8.34-1.38-9.24a.7.7,0,0,0-.6-.2c-1.69.21-2.6,3.13-2.51,8a1.13,1.13,0,0,1-.81,1.1,1.11,1.11,0,0,1-1.27-.47,7.86,7.86,0,0,0-6.49-3.83c-4.44-.18-7.29,3.53-8.06,7.06-.41,1.9-.06,3.16.48,3.38.79.32,1.59-.09,2.94-.85a11.16,11.16,0,0,1,5.27-1.75h.12c6.82,0,9.62,16,9.74,16.71a.54.54,0,0,1-.44.62Z" class="cls-3"/><path data-cppathid="10003" d="M26.44,61.91s-8,10.84,2.7,17.89A1.18,1.18,0,0,0,31,78.92a22.52,22.52,0,0,1,.83-4.28,31.41,31.41,0,0,0,1.38-5.55" class="cls-4"/><g class="cls-2"><path data-cppathid="10004" d="M26.44,61.91s-8,10.84,2.7,17.89A1.18,1.18,0,0,0,31,78.92a22.52,22.52,0,0,1,.83-4.28,31.41,31.41,0,0,0,1.38-5.55" class="cls-3"/></g><path data-cppathid="10005" d="M29.78,80.48a1.64,1.64,0,0,1-.91-.27c-3.18-2.09-5.08-4.73-5.63-7.83-1-5.55,2.65-10.55,2.8-10.76a.49.49,0,1,1,.8.58c-.05.06-3.54,4.9-2.63,10,.51,2.82,2.26,5.23,5.2,7.16a.65.65,0,0,0,.67.05.7.7,0,0,0,.39-.56,22.63,22.63,0,0,1,.85-4.38A31.74,31.74,0,0,0,32.68,69a.49.49,0,1,1,1,.12,32.62,32.62,0,0,1-1.4,5.64A22.28,22.28,0,0,0,31.45,79a1.65,1.65,0,0,1-.95,1.35A1.68,1.68,0,0,1,29.78,80.48Z" class="cls-3"/><path data-cppathid="10006" d="M76.57,45.25s8.91-3.25,8.67-8c-.3-5.86-9,1.58-9,1.58s-4.65-10.92-6.82-5.93c-1.86,4.3,1.89,10.86,1.89,10.86" class="cls-4"/><g class="cls-5"><path data-cppathid="10007" d="M76.08,38.26,74.3,44.17l-3.11-.9s-.17-.3-.42-.81c-.1-.2-.21-.43-.32-.69,1-1.4,2.88-3.72,5.29-4.26L76,38C76,38.09,76.05,38.19,76.08,38.26Z" class="cls-3"/></g><g class="cls-6"><path data-cppathid="10008" d="M75.89,38c-.87-1.29-3-4.36-4.33-5-.88-.44-1.68.72-1.68,2.55a56,56,0,0,0,1.47,7.41l-.43,0C70,41,68,36.26,69.45,32.87,71.24,28.74,74.74,35.51,75.89,38Z" class="cls-7"/></g><g class="cls-5"><path data-cppathid="10009" d="M78.31,44.65l-.06,0c-.82.38-1.37.58-1.37.58l-2-.59,1.57-6.23.17.37.45-.37A15.34,15.34,0,0,1,78.31,44.65Z" class="cls-3"/></g><g class="cls-6"><path data-cppathid="10010" d="M78,44.67c1.72-1.19,5.48-4,6-5.76.46-1.65.5-2.82-1.39-2.75-1.68.07-5.89,2.86-5.89,2.86s0-.23.12-.62c1.84-1.47,8.23-6.19,8.48-1.18C85.42,40.81,80.44,43.54,78,44.67Z" class="cls-7"/></g><path data-cppathid="10011" d="M76.57,45.79a.54.54,0,0,1-.18-1c.08,0,8.53-3.17,8.31-7.49,0-.89-.3-1.44-.76-1.64-1.52-.65-5.3,1.86-7.32,3.6l-.56.48L75.77,39c-1.22-2.86-3.55-6.9-4.9-6.9h0c-.41,0-.73.53-.92,1-1.73,4,1.83,10.31,1.86,10.37a.54.54,0,0,1-.2.74.53.53,0,0,1-.73-.2C70.72,43.72,67,37.16,69,32.66c.47-1.08,1.11-1.63,1.91-1.63h0c2.23,0,4.67,4.87,5.59,6.9,1.55-1.24,5.66-4.27,7.9-3.31a2.68,2.68,0,0,1,1.41,2.58c.26,5.11-8.65,8.42-9,8.56Z" class="cls-3"/><path data-cppathid="10012" d="M75.53,56.64A22.46,22.46,0,0,1,73,63.5c-6.09,10.13-23,14-43.18,11.24C4.84,71.34.55,51.82.55,51.82v-.08C.7,50.62,2.62,37.93,14.15,31.56c12.57-7,26.42-2.45,37.05,11.83C57.62,52,66,56.33,69.83,47s6.44-8.21,6.44-8.21S77.31,48.4,75.53,56.64Z" class="cls-4"/><g class="cls-6"><path data-cppathid="10013" d="M69.83,47C66,56.33,57.62,52,51.2,43.39,42.39,31.56,31.38,26.44,20.71,29a25.92,25.92,0,0,0-6.56,2.58,24.08,24.08,0,0,0-3.71,2.51C3.51,39.71,1.34,47.65.74,50.63c.84-2.3,4.37-11,11.43-16a11.18,11.18,0,0,0,4.33-.7c2.3-.81,4.07-2.09,4.64-3.22,10.53-2.3,21.37,2.84,30.06,14.51C57.62,53.84,66,57.94,70.4,48.85a84.75,84.75,0,0,1,5.45-10.08C75,38.86,72.77,39.88,69.83,47Z" class="cls-7"/></g><path data-cppathid="10014" d="M75.53,56.64A22.46,22.46,0,0,1,73,63.5c-6.09,10.13-23,14-43.18,11.24C4.84,71.34.55,51.82.55,51.82v-.08c1.86-1,6.51,6.66,18.89,5.28,3.84-.42,11.76-3.72,11.76-3.72S66.35,74.77,75.53,56.64Z" class="cls-7"/><g class="cls-2"><path data-cppathid="10015" d="M73.06,63.42l0,.08c-6.09,10.13-23,14-43.18,11.24C4.83,71.34.55,51.82.55,51.82a.45.45,0,0,1,0-.08.75.75,0,0,1,.3-.09.91.91,0,0,1,.75.34c4.79,5.95,10.33,13.6,26.76,17.67a79.85,79.85,0,0,0,13.36,2.21,2.23,2.23,0,0,0,2-3.54c-3-4.09-2.47-9.6-2.47-9.6l9.46,2.68a31.69,31.69,0,0,1,1.68,5.47A21.67,21.67,0,0,0,53.86,71a1,1,0,0,1,.11.41c8.84-1.52,14.31-5.46,17.61-9.06A.92.92,0,0,1,73.06,63.42Z" class="cls-3"/></g><path data-cppathid="10016" d="M44.36,74a63.89,63.89,0,0,1-17.93-2.53c-7.77-2.26-13.88-7.21-17.63-11a48.69,48.69,0,0,1-6.37-7.67.5.5,0,0,1,.16-.68.49.49,0,0,1,.68.15,48.4,48.4,0,0,0,6.24,7.52c3.67,3.67,9.64,8.49,17.2,10.7A66.53,66.53,0,0,0,67.1,69a.5.5,0,0,1,.34.93,69.09,69.09,0,0,1-19.06,3.88Q46.36,73.95,44.36,74Z" class="cls-3"/><path data-cppathid="10017" d="M50.35,70.69a50.74,50.74,0,0,1-17.8-3c-11.39-4.35-16-10-16.24-10.21a.49.49,0,0,1,.77-.62c.06.07,4.72,5.67,15.83,9.91C45.5,71.61,63.5,70,71.17,65.3a.49.49,0,0,1,.68.16.5.5,0,0,1-.17.68c-3.81,2.32-10.33,4-17.42,4.42C53,70.65,51.64,70.69,50.35,70.69Z" class="cls-3"/><path data-cppathid="10018" d="M58.41,66.7c-6.57,0-14.13-1.31-18.8-3.26-11.35-4.73-12.92-8.22-13-8.36a.5.5,0,0,1,.26-.65.49.49,0,0,1,.64.26c0,.06,1.67,3.35,12.46,7.84,8.85,3.69,29.24,5.42,33.88-1.91a.49.49,0,1,1,.83.53c-2.26,3.57-8,5.54-16.27,5.55Z" class="cls-3"/><path data-cppathid="10019" d="M19.44,57.52a.49.49,0,0,1-.48-.44.49.49,0,0,1,.43-.55c3.73-.41,11.55-3.66,11.63-3.69a.49.49,0,0,1,.38.91c-.33.14-8,3.33-11.9,3.76Z" class="cls-3"/><path data-cppathid="10020" d="M16.5,57.68A22.59,22.59,0,0,1,3.16,53.32c-1-.69-2-1.34-2.37-1.15a.49.49,0,0,1-.47-.87c.87-.46,1.87.2,3.39,1.19a21.66,21.66,0,0,0,15.68,4,.5.5,0,0,1,.55.44.49.49,0,0,1-.44.54A26.37,26.37,0,0,1,16.5,57.68Z" class="cls-3"/><path data-cppathid="10021" d="M42,76.14a90.15,90.15,0,0,1-12.21-.87,40.64,40.64,0,0,1-15.32-5.08,32.58,32.58,0,0,1-9-7.85A28.15,28.15,0,0,1,0,51.93l0-.09v-.08A29.22,29.22,0,0,1,2.33,44,27.3,27.3,0,0,1,13.89,31.08c12.79-7.07,26.9-2.59,37.74,12,4.34,5.83,9,9,12.59,8.6,2.18-.27,3.9-1.9,5.11-4.86,2.48-6,4.52-7.87,5.8-8.39a1.75,1.75,0,0,1,1.35-.1l.29.12,0,.31c.08.68,1.74,16.62-3.32,25-3,5-8.78,8.71-16.65,10.69A61.47,61.47,0,0,1,42,76.14ZM1.09,51.79a28.13,28.13,0,0,0,5.18,9.92C10,66.46,17.2,72.48,29.9,74.21c10,1.36,19.22,1.09,26.67-.79s13.11-5.43,16-10.2C77,55.91,76,42.09,75.78,39.34c-.74.19-2.75,1.33-5.45,7.88-1.38,3.33-3.39,5.19-6,5.51-3.93.5-9-2.88-13.58-9C40.27,29.61,26.68,25.24,14.41,32A26.21,26.21,0,0,0,3.33,44.37,29,29,0,0,0,1.09,51.79Z" class="cls-3"/><path data-cppathid="10022" d="M41.23,57.49S40,70.91,52.75,71.44a1.19,1.19,0,0,0,1.11-1.7,21.56,21.56,0,0,1-1.49-4.09,31.41,31.41,0,0,0-1.68-5.47" class="cls-4"/><g class="cls-6"><path data-cppathid="10023" d="M52.75,71.44C44.21,71.09,41.94,65,41.37,61c1.06,3.74,3.83,8,10.93,8.29a1.16,1.16,0,0,0,1.08-.61c.16.39.33.76.48,1.08A1.19,1.19,0,0,1,52.75,71.44Z" class="cls-7"/></g><path data-cppathid="10024" d="M41.39,57.51a11.11,11.11,0,0,1,.35,2c.07.66.13,1.33.23,2a12.73,12.73,0,0,0,.46,1.94,13.39,13.39,0,0,0,.75,1.84,10,10,0,0,0,2.38,3.1,9.45,9.45,0,0,0,1.61,1.12l.44.22c.15.07.29.15.44.21l.46.18.23.09.24.07a11.63,11.63,0,0,0,1.93.46l.49.08.25,0,.25,0,.5,0,.25,0h.2a.63.63,0,0,0,.5-.28.67.67,0,0,0,.11-.58.19.19,0,0,0,0-.07l0,0a.06.06,0,0,0,0,0l-.11-.24-.21-.48c-.14-.32-.28-.64-.4-1a20.59,20.59,0,0,1-.67-2c0-.17-.09-.34-.13-.51l-.13-.5-.25-1c-.09-.33-.17-.66-.27-1s-.21-.65-.32-1a8.25,8.25,0,0,1-.28-1,3.58,3.58,0,0,1-.09-1h0a.2.2,0,0,1,.2-.17l.1,0a2.79,2.79,0,0,1,.69.86,6.25,6.25,0,0,1,.39,1l.54,2,.25,1,.12.5c.05.17.08.33.13.49a18.61,18.61,0,0,0,.64,1.91c.12.31.25.63.38.94l.21.46.11.23,0,.07,0,.08a1.27,1.27,0,0,1,.06.18,1.67,1.67,0,0,1-.26,1.39,1.7,1.7,0,0,1-1.24.7H52.6l-.26,0-.53,0-.27,0-.26,0-.53-.07c-.35,0-.7-.14-1-.21s-.68-.19-1-.29l-.25-.08-.26-.1-.5-.2c-.17-.06-.32-.15-.48-.22l-.49-.25a10.25,10.25,0,0,1-1.77-1.24,10.73,10.73,0,0,1-2.62-3.4,14.18,14.18,0,0,1-.81-2c-.21-.68-.37-1.37-.52-2.06a10.77,10.77,0,0,1-.26-2.11,5,5,0,0,1,.35-2.11.17.17,0,0,1,.23-.09.18.18,0,0,1,.1.11Z" class="cls-3"/><path data-cppathid="10025" d="M33.93,46.24A5.87,5.87,0,0,0,32.82,44a2.65,2.65,0,0,0-2-.86,2.77,2.77,0,0,0-1.09.15,2,2,0,0,0-.85.61,4.65,4.65,0,0,0-.86,2.29v0a.21.21,0,0,1-.24.17.2.2,0,0,1-.17-.16,3.55,3.55,0,0,1-.09-.72,4.46,4.46,0,0,1,0-.73,3.53,3.53,0,0,1,.5-1.46,2.73,2.73,0,0,1,1.23-1.09A3.22,3.22,0,0,1,30.1,42a5.35,5.35,0,0,1,.79-.06,3.67,3.67,0,0,1,1.57.36,3.22,3.22,0,0,1,1.22,1.06,4.14,4.14,0,0,1,.6,1.41,4.48,4.48,0,0,1,.06,1.46.2.2,0,0,1-.23.18.19.19,0,0,1-.17-.15Z" class="cls-3"/><path data-cppathid="10026" d="M30.61,50.54s-.74,5.24,4.72,4.76" class="cls-8"/><path data-cppathid="10027" d="M34.64,55.41a4,4,0,0,1-3.06-1.13,5,5,0,0,1-1-3.75l.15,0a4.91,4.91,0,0,0,1,3.63,4.27,4.27,0,0,0,3.63,1v.15A5.53,5.53,0,0,1,34.64,55.41Z" class="cls-3"/><path data-cppathid="10028" d="M30.7,50.55c.26.67.39,1.26.56,1.83a7.16,7.16,0,0,0,.27.82,2.6,2.6,0,0,0,.47.7,2.34,2.34,0,0,0,.69.47,4.13,4.13,0,0,0,.79.29c.28.09.58.13.88.21a2.92,2.92,0,0,1,.46.13,2.39,2.39,0,0,1,.5.22h0a.09.09,0,0,1,0,.13l0,0a2.56,2.56,0,0,1-2.1.33,3.68,3.68,0,0,1-.54-.16,3.44,3.44,0,0,1-.51-.25,3.81,3.81,0,0,1-.89-.71,5,5,0,0,1-.67-.92,4.07,4.07,0,0,1-.4-1,2.83,2.83,0,0,1,.31-2.11.11.11,0,0,1,.13,0,.09.09,0,0,1,0,0Z" class="cls-3"/><g class="cls-6"><path data-cppathid="10029" d="M14.74,10.68a.83.83,0,0,1-1-1.27,7,7,0,0,1,2.83-2.18,8.91,8.91,0,0,1,4.33-.41.83.83,0,0,1,0,1.62,36.34,36.34,0,0,0-3.55,1A26.12,26.12,0,0,0,14.74,10.68Z" class="cls-7"/></g><g class="cls-6"><path data-cppathid="10030" d="M37.78,11a.41.41,0,0,1-.39-.68c.63-.74,2.07-1.86,5.13-2.22a3.39,3.39,0,0,1,3.12.93.55.55,0,0,1-.51.92A8,8,0,0,0,42,9.9C41.23,10,39,10.79,37.78,11Z" class="cls-7"/></g><g class="cls-6"><path data-cppathid="10031" d="M29.81,3.42a.21.21,0,0,1-.35-.21c.2-.6.54-1.25,1.08-1.34s.83.69.91,1.35a.21.21,0,0,1-.37.17.94.94,0,0,0-.55-.32A.92.92,0,0,0,29.81,3.42Z" class="cls-7"/></g><g class="cls-6"><path data-cppathid="10032" d="M31.49,12.07a.36.36,0,0,1,.68-.07,1.1,1.1,0,0,0,1,.65,2.91,2.91,0,0,0,1.4-.42.37.37,0,0,1,.53.44,2.23,2.23,0,0,1-1.46,1.51c-1.51.37-2-.46-2.17-1.16A2,2,0,0,1,31.49,12.07Z" class="cls-7"/></g></g></g></g></g></svg>